<!--
  - Baah Box
  - Copyright (c) 2024. Orange SA
  -
  -   This program is free software: you can redistribute it and/or modify
  -   it under the terms of the GNU General Public License as published by
  -   the Free Software Foundation, either version 3 of the License, or
  -   (at your option) any later version.
  -
  -   This program is distributed in the hope that it will be useful,
  -   but WITHOUT ANY WARRANTY; without even the implied warranty of
  -   MERCHANTABILITY or FITNESS FOR A PARTICULAR PURPOSE. See the
  -   GNU General Public License for more details.
  -
  -   You should have received a copy of the GNU General Public License
  -   along with this program. If not, see <http://www.gnu.org/licenses/>.
  -
  -->

<svg xmlns="http://www.w3.org/2000/svg" viewBox="0 0 764.67 990.65"><defs><style>.cls-1{fill:#fff;}.cls-2{fill:#6d6a66;}</style></defs><title>mouton_accueil</title><g id="Calque_2" data-name="Calque 2"><g id="Calque_2-2" data-name="Calque 2"><path class="cls-1" d="M390,177.68A226.1,226.1,0,0,0,304,0H0V982.67a102.3,102.3,0,0,0,47-40c34.55,29.78,80.61,48,131.19,48,107.24,0,194.17-81.7,194.17-182.47A172.71,172.71,0,0,0,366.83,765c77.47-75.07,123.61-169.4,123.61-271.85,0-95.51-40.1-184-108.29-256.33A226.52,226.52,0,0,0,390,177.68Z"/><path class="cls-2" d="M462.63,279.52S668.14,374,663.14,254.1s-252.73-16-252.73-16S488.83,240.22,462.63,279.52Z"/><path class="cls-2" d="M372.31,275.07s384.42,1.66,392.27,362.54-474.64-9.51-455-181.27S372.31,275.07,372.31,275.07Z"/><path class="cls-2" d="M203.64,323.8S-16,377.66,62.43,468.41,270.33,323.8,270.33,323.8,207.56,370.87,203.64,323.8Z"/><path class="cls-1" d="M664.69,581.05c8.2,10.44,16.65,20.64,25.6,30.32,4.52,4.8,9.1,9.52,14,13.84s10.05,8.38,15.7,11.23a24.92,24.92,0,0,0,8.69,2.75,13.27,13.27,0,0,0,4.24-.39,11.55,11.55,0,0,0,3.7-1.95,19.12,19.12,0,0,0,5.18-7.31,21,21,0,0,0,.88-2.2c.26-.76.56-1.49.76-2.27l.68-2.31.56-2.36c.37-1.58.64-3.19.92-4.8s.49-3.23.66-4.86.38-3.26.5-4.9l.2-2.46.14-2.47c.42-6.59.47-13.22.54-19.86a194.12,194.12,0,0,1,1.43,19.9A109.23,109.23,0,0,1,747.75,621a46.22,46.22,0,0,1-2.71,9.9,22.51,22.51,0,0,1-6,8.87,14.4,14.4,0,0,1-5,2.72,17.32,17.32,0,0,1-5.61.59,28.58,28.58,0,0,1-10.2-3.08,77.58,77.58,0,0,1-16.44-12A172.49,172.49,0,0,1,688,613.44,249.38,249.38,0,0,1,664.69,581.05Z"/><path class="cls-1" d="M735.36,645c1.11,5.12,1.75,10.33,2.37,15.54.23,2.61.5,5.22.66,7.84l.22,3.93c.08,1.31.14,2.62.16,3.93,0,2.62.17,5.25.12,7.87l-.11,7.88-.41,7.86c-.13,2.63-.44,5.23-.66,7.85l-.38,3.92-.53,3.9c-.37,2.6-.66,5.22-1.11,7.8-1,5.16-1.81,10.35-3.15,15.43l-.92,3.83c-.31,1.27-.59,2.56-1,3.81l-2.26,7.53c-.41,1.25-.73,2.52-1.2,3.75l-1.36,3.69c-.89,2.46-1.81,4.92-2.74,7.36A311.28,311.28,0,0,0,731,738.39c1.15-5.09,1.92-10.25,2.8-15.38.41-2.58.69-5.17,1-7.75l.51-3.88.35-3.89a285.83,285.83,0,0,0,1.49-31.24A257.75,257.75,0,0,0,735.36,645Z"/><ellipse class="cls-1" cx="386.04" cy="232.55" rx="77.07" ry="70.11"/><ellipse class="cls-1" cx="330.15" cy="307.9" rx="59.82" ry="52.3"/><circle class="cls-1" cx="333.56" cy="389.91" r="42.24" transform="translate(-178.01 350.07) rotate(-45)"/><circle class="cls-1" cx="315.89" cy="474.16" r="59.91" transform="translate(-218.17 672.66) rotate(-76.72)"/><circle class="cls-1" cx="439.51" cy="275.71" r="63.71" transform="translate(-66.23 391.53) rotate(-45)"/><circle class="cls-1" cx="425.56" cy="183.71" r="92"/><circle class="cls-1" cx="489.95" cy="403.45" r="56.55" transform="translate(13.23 822.45) rotate(-80.78)"/><ellipse class="cls-1" cx="569.41" cy="375.74" rx="31.36" ry="37.3" transform="translate(-101.13 250.08) rotate(-22.81)"/><circle cx="494.39" cy="398.72" r="23.18"/><ellipse cx="566.3" cy="376.25" rx="11.54" ry="13.73" transform="translate(-101.56 248.91) rotate(-22.8)"/><path class="cls-1" d="M519.12,596.3a233,233,0,0,0,.25,25.08,239.7,239.7,0,0,0,2.74,24.84c2.74,16.39,7.25,32.53,14.61,47.31s17.66,28.07,30.89,38A110.94,110.94,0,0,0,578,738.27a108.64,108.64,0,0,0,11.15,5.48A133.58,133.58,0,0,0,613,751.14a110.88,110.88,0,0,1-24.6-5.56,109.08,109.08,0,0,1-11.68-5A102.78,102.78,0,0,1,565.78,734,95.61,95.61,0,0,1,547,716.74a98.94,98.94,0,0,1-7.55-10.33,122.9,122.9,0,0,1-6.32-11.1,143.46,143.46,0,0,1-9.08-23.78,173.53,173.53,0,0,1-5-24.86,201,201,0,0,1-1.62-25.23A171.66,171.66,0,0,1,519.12,596.3Z"/></g></g></svg>