<!--
  - Baah Box
  - Copyright (c) 2024. Orange SA
  -
  -   This program is free software: you can redistribute it and/or modify
  -   it under the terms of the GNU General Public License as published by
  -   the Free Software Foundation, either version 3 of the License, or
  -   (at your option) any later version.
  -
  -   This program is distributed in the hope that it will be useful,
  -   but WITHOUT ANY WARRANTY; without even the implied warranty of
  -   MERCHANTABILITY or FITNESS FOR A PARTICULAR PURPOSE. See the
  -   GNU General Public License for more details.
  -
  -   You should have received a copy of the GNU General Public License
  -   along with this program. If not, see <http://www.gnu.org/licenses/>.
  -
  -->

<svg xmlns="http://www.w3.org/2000/svg" viewBox="0 0 583.81 562.07"><defs><style>.cls-1{fill:#fff;}</style></defs><title>mouton_bang</title><g id="Calque_2" data-name="Calque 2"><g id="Calque_2-2" data-name="Calque 2"><path class="cls-1" d="M230.1,292.34q-.61,5.18-.9,14.13-.37,9.39,0,11.62a92.74,92.74,0,0,1,9.6-5.51q-2.86-5.62-3.68-7.45A128.5,128.5,0,0,1,230.1,292.34Z"/><path class="cls-1" d="M174.59,295.61c-.2-.22-.58-.25-1.15-.1q-2.17.6-6.2,4.16t-5.05,6.09l2.71,9.86a83.6,83.6,0,0,0,7.76-12.75Q175.69,296.63,174.59,295.61Z"/><path class="cls-1" d="M178.05,327.4q-5.66,4.31-7.82,7.56l4.86,17.64q5.7-3.41,9.27-13.78t1.38-16.09Q183.3,323.51,178.05,327.4Z"/><path class="cls-1" d="M452,285.78,583.81,118.86,424.74,183.33,431.6,54.25,365.27,156.48,370.27,0,234.81,147.06,126.67,54.25,115.06,189.64l-92.45-15.3,117,97.09L0,331.63l135.67,41L33,525.26l156.77-82.05,9.94,118.86,79.45-92.44,79.45,92.44,35.15-156.54L524.18,453l-116.79-103,150.88-18.44ZM198.59,343.47a64.19,64.19,0,0,1-9.67,16.74q-5.76,7.2-8.43,7.53-3,.4-11.21-1.45t-9.23-3.12a2.11,2.11,0,0,1-.42-.8,4.63,4.63,0,0,1-.08-1.56,4.7,4.7,0,0,0,0-1.47L142.58,297.9q-.42-1.51,3.75-2.67a13.41,13.41,0,0,1,3.42-.53,51.7,51.7,0,0,1,9.84-8.17,39.79,39.79,0,0,1,11-5.43,10.2,10.2,0,0,1,4.63-.41,8.45,8.45,0,0,1,3.67,2,24.24,24.24,0,0,0,3.31,2.76c.16.09,1.44.66,3.83,1.7a6.62,6.62,0,0,1,3,2.43,8.33,8.33,0,0,1,1.06,2.36q2.05,7.5-5.46,19.05,12.25,4.89,15,10.86a21.47,21.47,0,0,1,1,2.79Q202.81,332.52,198.59,343.47Zm73.64-1.93a3.48,3.48,0,0,1-1.54.73,25.72,25.72,0,0,1-8.22.53c-3.63-.09-6.23-.66-7.82-1.72q-1-.65-3.08-5.27a78.92,78.92,0,0,0-5.27-9.88,73.32,73.32,0,0,0-9.81,5.51q-6.33,4.05-8,6c-.19,3-.54,6.68-1,11.1.06.93.08,1.83.08,2.68a3.42,3.42,0,0,1-1.13,2.4,1.54,1.54,0,0,1-.8.42c-1.51.42-4.28.33-8.28-.26s-6.15-1.13-6.41-1.6q-.75-1.23,0-7,.94-8.43.94-10.26a5.94,5.94,0,0,1-3.08-3.43,6.37,6.37,0,0,1-.2-1.07q-.12-1.2,4.66-5.67l.71-45.19a16.82,16.82,0,0,0-1.05-4.2c-.6-1.67-.71-2.79-.32-3.38.23-.4.94-.77,2.14-1.1q4.45-1.23,13.33-1.22T239,271q3.47,10.37,13,30.39,11.89,24.68,19.54,33.18c.1.58.35,2,.75,4.18A4.78,4.78,0,0,1,272.23,341.54Zm60.62-16.2q-1.35,1.8-7.47,2.88a34.83,34.83,0,0,1-8.37.37c-4.19-.14-6.65-.82-7.4-2a22.57,22.57,0,0,0-1.41-4Q299,310,287.39,295.13l7.73,28.06a4.67,4.67,0,0,0,1.21,1.81,19.45,19.45,0,0,1,1.33,1.47,9.41,9.41,0,0,1,1.25,2.72q1.05,3.78-2.36,4.73a35.45,35.45,0,0,1-9.91.69q-6.21-.33-7.26-1.16c-1-.8-1.39-2.1-1.07-3.89a11.56,11.56,0,0,0,.33-3.25l-16.39-59.45a7.53,7.53,0,0,0-.75-1.63,3.69,3.69,0,0,1-.59-1.78,6.59,6.59,0,0,1,2.49-5.38,7.22,7.22,0,0,1,2-.76,33,33,0,0,1,7.84-1.14q5.34-.26,7.91,1.29,3.44,2.12,11.7,15.44,10.13,16.39,14.79,21.84l-10.27-37.27a9.36,9.36,0,0,0-1-2,8.8,8.8,0,0,1-1-2,2.8,2.8,0,0,1-.1-1.1q0-1.74,2.95-3.36a14.14,14.14,0,0,1,4.61-1.78,29.7,29.7,0,0,1,5.5-.4q4.72.14,5.27,1.71a5.55,5.55,0,0,1,.17,2.1,14.94,14.94,0,0,0-.15,2.79L331,316c-.06-.19.42.94,1.44,3.38Q334.19,323.54,332.85,325.34Zm51.36-47.2a2.17,2.17,0,0,1-1.42,0,3,3,0,0,0-1.35-.09,3.38,3.38,0,0,0-1.15.63q.19,15.15-.56,20.55-1.32,10.07-6.62,14.48a8,8,0,0,1-3.11,1.67q-1.71.48-9.12-.14a87.73,87.73,0,0,1-8.82-.53q-6.22-1.14-11.9-9.88a71.89,71.89,0,0,1-8.47-20,85.69,85.69,0,0,1-3.32-29.08q1-14.67,8.38-18.43a11.71,11.71,0,0,1,1.49-.51q4.75-1.31,12.41-.16,8.19,1.22,11.82,4.4a19.53,19.53,0,0,1,4.94,7.2q2.37,5.26,2.69,5.69c.49,1,1.1,2.25,1.83,3.68a6.75,6.75,0,0,1-1.58,5.74q-1.1.81-7.77.66t-8.2-.85c-1.34-.45-2.22-1.8-2.65-4.07a2.5,2.5,0,0,1,.15-1.31,2.38,2.38,0,0,0,.12-1.41c-1.23-4.49-2.36-6.6-3.37-6.32q-3.25.79-2.71,12.38a106.74,106.74,0,0,0,3.89,23q5,18,10.72,19.29,1.73.35,2.69-6.35a37.87,37.87,0,0,0,0-12,32.08,32.08,0,0,0-6.6-1.35c-2.53-.32-4-.8-4.37-1.44-.52-.88-.57-2.31-.16-4.29a7.65,7.65,0,0,1,1.86-4.14,10.25,10.25,0,0,1,3.89-2,27.3,27.3,0,0,0,4.31-1.39,35.46,35.46,0,0,0,4.77-3,14.3,14.3,0,0,1,4.15-2.37,6.36,6.36,0,0,1,1.07-.19c1.66-.12,4.38.67,8.14,2.35s5.73,3,5.92,3.88C386.7,275,386,276.88,384.21,278.14Zm26.87-15.77c.15-2.43.21-3.67.2-3.73L401.4,222.8q-.67-2.46,1.9-4.2a5.67,5.67,0,0,1,1.56-.63,20.17,20.17,0,0,1,6.38-.54c2.49.13,4.14.57,4.95,1.29a31.17,31.17,0,0,1,1.6,5.07l10.66,38.69a11.13,11.13,0,0,0,.65,1.6,11,11,0,0,1,.67,1.7q.78,3.57-.73,4.39a4.47,4.47,0,0,1-.92.35,16.31,16.31,0,0,1-7.52-.27,24.24,24.24,0,0,1-8.27-3.33Q410.86,266,411.08,262.37Zm24.6,37.08c-.7.4-3.06.37-7.06-.09q-6.35-.81-7.95-2.2c-.64-.57-.79-1.75-.47-3.54a8.79,8.79,0,0,0-.3-3.69c-.51-1.36-1.24-4-2.2-8q-.56-3.51,1.93-4.1a27.12,27.12,0,0,1,8,.1c3.52.42,5.5,1,5.94,1.57a17.88,17.88,0,0,1,1.28,4.65c.65,3.36,1.09,5.41,1.29,6.17a35.67,35.67,0,0,1,1.24,6A2.88,2.88,0,0,1,435.68,299.45Z"/></g></g></svg>