<!--
  - Baah Box
  - Copyright (c) 2024. Orange SA
  -
  -   This program is free software: you can redistribute it and/or modify
  -   it under the terms of the GNU General Public License as published by
  -   the Free Software Foundation, either version 3 of the License, or
  -   (at your option) any later version.
  -
  -   This program is distributed in the hope that it will be useful,
  -   but WITHOUT ANY WARRANTY; without even the implied warranty of
  -   MERCHANTABILITY or FITNESS FOR A PARTICULAR PURPOSE. See the
  -   GNU General Public License for more details.
  -
  -   You should have received a copy of the GNU General Public License
  -   along with this program. If not, see <http://www.gnu.org/licenses/>.
  -
  -->

<svg xmlns="http://www.w3.org/2000/svg" viewBox="0 0 573.17 461.04"><defs><style>.cls-1{fill:#6d6a66;}.cls-2{fill:#fff;}</style></defs><title>mouton_04</title><g id="Calque_2" data-name="Calque 2"><g id="Calque_2-2" data-name="Calque 2"><path class="cls-1" d="M157.76,394.45s25.24,37.46,29,51.7,23.67,13.11,12.33-8.54-26.51-55.9-26.51-55.9Z"/><path class="cls-1" d="M175,382.5s25.24,37.45,29,51.7,23.67,13.11,12.33-8.54-26.51-55.9-26.51-55.9Z"/><path class="cls-1" d="M378.88,419.1s43.37,24.77,54.34,36.59,29.27,2.55,7.29-13.11S386.38,401,386.38,401Z"/><path class="cls-1" d="M389.09,400.74s43.37,24.78,54.33,36.6,29.28,2.54,7.29-13.11-54.12-41.57-54.12-41.57Z"/><path class="cls-1" d="M496.26,222.37s63.19,59.05,75.83,15S482.32,201,482.32,201,510.51,211.27,496.26,222.37Z"/><ellipse class="cls-2" cx="267.05" cy="232.27" rx="169.52" ry="225.02" transform="matrix(0.32, -0.95, 0.95, 0.32, -37.59, 412.44)"/><circle class="cls-2" cx="166.91" cy="65.73" r="43.07" transform="translate(-9.47 33.04) rotate(-11)"/><ellipse class="cls-2" cx="284.25" cy="95.2" rx="93.75" ry="107.24" transform="translate(104.26 334.92) rotate(-71.62)"/><circle class="cls-2" cx="399.98" cy="149.33" r="86.62" transform="translate(11.56 326.57) rotate(-45)"/><circle class="cls-2" cx="76.34" cy="242.11" r="54.75" transform="translate(-175.09 277.2) rotate(-80.44)"/><ellipse class="cls-2" cx="157.76" cy="327.66" rx="69.75" ry="87" transform="matrix(0.32, -0.95, 0.95, 0.32, -202.93, 374.02)"/><circle class="cls-2" cx="240.58" cy="382.84" r="39" transform="translate(-146.02 148.35) rotate(-26.62)"/><ellipse class="cls-2" cx="329.28" cy="379.89" rx="69.77" ry="74.25" transform="translate(-135.07 572.55) rotate(-71.62)"/><ellipse class="cls-2" cx="108.02" cy="120.8" rx="55.62" ry="50.95" transform="translate(-40.68 185.2) rotate(-71.62)"/><ellipse class="cls-2" cx="42.84" cy="147.79" rx="47.35" ry="34.78" transform="translate(-83.34 59.72) rotate(-38.92)"/><path class="cls-1" d="M464,209.86s139.29,47,98.61,178.86S391.56,328,419.39,268.07,464,209.86,464,209.86Z"/><path class="cls-1" d="M397,207.2s-86.21-6.94-68.68,35.45,92.87-27.4,92.87-27.4S392.69,224.76,397,207.2Z"/><path class="cls-2" d="M533.22,356.15c2.21,4.63,4.27,9.24,6.52,13.71,1.13,2.23,2.29,4.42,3.55,6.52a31.2,31.2,0,0,0,4.19,5.67,8.34,8.34,0,0,0,2.43,1.78,3.66,3.66,0,0,0,1.15.31,3.41,3.41,0,0,0,1.12-.16,6.33,6.33,0,0,0,2.36-1.66,18.13,18.13,0,0,0,2.12-2.73c2.61-4,4.52-8.79,6.66-13.43a45.35,45.35,0,0,1-3.93,15,18,18,0,0,1-2.21,3.51,9.41,9.41,0,0,1-3.65,2.86,6.72,6.72,0,0,1-2.6.49,7.52,7.52,0,0,1-2.54-.53,11.88,11.88,0,0,1-3.73-2.6,28.71,28.71,0,0,1-4.67-6.64,59.93,59.93,0,0,1-3.13-7.14A70.33,70.33,0,0,1,533.22,356.15Z"/><path class="cls-2" d="M551.15,387.87a56.52,56.52,0,0,1-2.07,11.89c-.51,2-1.16,3.87-1.81,5.78s-1.44,3.77-2.26,5.62c-.4.93-.83,1.84-1.29,2.74s-.88,1.82-1.37,2.7c-1,1.75-2,3.54-3.11,5.2a62.77,62.77,0,0,1-7.46,9.48c2.09-3.44,4.25-6.77,6.12-10.28s3.69-7,5.28-10.65,3.08-7.31,4.42-11.05S550.12,391.76,551.15,387.87Z"/><ellipse class="cls-2" cx="474.14" cy="196.09" rx="26.81" ry="29.47" transform="translate(138.52 584.19) rotate(-71.62)"/><ellipse class="cls-2" cx="444.77" cy="216.69" rx="20" ry="22.87" transform="translate(98.86 570.42) rotate(-71.62)"/><circle class="cls-2" cx="436.12" cy="246.86" r="16.15" transform="translate(-64.38 221.54) rotate(-26.62)"/><circle class="cls-2" cx="419.54" cy="275.3" r="22.91" transform="translate(-78.88 217.13) rotate(-26.62)"/><circle class="cls-2" cx="488.33" cy="218.2" r="24.36" transform="translate(-46.01 241.9) rotate(-26.62)"/><circle class="cls-2" cx="494.37" cy="183.13" r="35.18" transform="translate(106.23 539.91) rotate(-62.92)"/><circle class="cls-2" cx="491.23" cy="270.63" r="21.62" transform="translate(-7 13.12) rotate(-1.52)"/><path class="cls-2" d="M511.45,271.09c.61,7.85,6.45,13.8,13.05,13.29s11.47-7.29,10.86-15.14-6.45-13.81-13.05-13.3S510.84,263.23,511.45,271.09Z"/><path d="M509.52,272.68a6.85,6.85,0,1,1-4.34-8.66A6.84,6.84,0,0,1,509.52,272.68Z"/><ellipse cx="522.34" cy="269.61" rx="4.41" ry="5.25" transform="matrix(1, -0.08, 0.08, 1, -19.23, 41.06)"/></g></g></svg>