<!--
  - Baah Box
  - Copyright (c) 2024. Orange SA
  -
  -   This program is free software: you can redistribute it and/or modify
  -   it under the terms of the GNU General Public License as published by
  -   the Free Software Foundation, either version 3 of the License, or
  -   (at your option) any later version.
  -
  -   This program is distributed in the hope that it will be useful,
  -   but WITHOUT ANY WARRANTY; without even the implied warranty of
  -   MERCHANTABILITY or FITNESS FOR A PARTICULAR PURPOSE. See the
  -   GNU General Public License for more details.
  -
  -   You should have received a copy of the GNU General Public License
  -   along with this program. If not, see <http://www.gnu.org/licenses/>.
  -
  -->

<svg xmlns="http://www.w3.org/2000/svg" viewBox="0 0 1079.41 12.95"><defs><style>.cls-1{fill:#fff;}</style></defs><title>mouton_sol</title><g id="Calque_2" data-name="Calque 2"><g id="Calque_2-2" data-name="Calque 2"><path class="cls-1" d="M1079.15,9.13c.57-.34.25-1.12-1.32-1l-1.11,1.33Z"/><path class="cls-1" d="M1068.62,6.68c-1.84.64-4,1.77-2.77,3,1.82-1.28,2.26-.75,4.23-2.26,1.56-.15,2.73.42,2.47.91.55-.34,2.43.29,3.27-.54a9.81,9.81,0,0,0-7.31-.22C1067.93,7.27,1068.49,6.92,1068.62,6.68Z"/><path class="cls-1" d="M915.6,4.62l1,.15A4.4,4.4,0,0,0,915.6,4.62Z"/><path class="cls-1" d="M820.8,3.89c.72,0,1-.16,1.06-.28C821.19,3.69,820.64,3.77,820.8,3.89Z"/><path class="cls-1" d="M804.61,2.43l.95.09A1.49,1.49,0,0,0,804.61,2.43Z"/><path class="cls-1" d="M915.6,4.62l-2.53-.42C912.89,4.63,914.37,4.52,915.6,4.62Z"/><path class="cls-1" d="M1047.52,9.87a5.36,5.36,0,0,0,1.38-.34l-1.3.14A.84.84,0,0,1,1047.52,9.87Z"/><path class="cls-1" d="M957.4,3.54h.77a4,4,0,0,0,.64-.54Z"/><path class="cls-1" d="M989.47,3.34c-.72,0-1,1.07-1.25,1.57a2.37,2.37,0,0,1,1.58-.77A1.26,1.26,0,0,0,989.47,3.34Z"/><path class="cls-1" d="M1040.33,5.32l.9-.16C1041,5.21,1040.6,5.26,1040.33,5.32Z"/><path class="cls-1" d="M934.44,3.3a.8.8,0,0,0-.29-.4C934.15,3,934.26,3.17,934.44,3.3Z"/><path class="cls-1" d="M37.33,11.75c0-.08,0-.13,0-.2C37.14,11.66,37.08,11.74,37.33,11.75Z"/><path class="cls-1" d="M.15,6.18l.52-.06a2.78,2.78,0,0,0,.11-.63Z"/><path class="cls-1" d="M775,1l.13,0C775.9.88,775.46.91,775,1Z"/><path class="cls-1" d="M503,1.82c3.09,1-5,1.29-.37,2.41C502.23,3.79,506.87,2.47,503,1.82Z"/><path class="cls-1" d="M1046.69,9.73c-.43,0-.87,0-1.32,0A7.84,7.84,0,0,0,1046.69,9.73Z"/><path class="cls-1" d="M502.66,4.23h0l.48.1Z"/><path class="cls-1" d="M706.73,1.67a2.06,2.06,0,0,0,.7.49C707.4,2,707.25,1.9,706.73,1.67Z"/><path class="cls-1" d="M757.58,3.27l-1.26-.15A8.63,8.63,0,0,0,757.58,3.27Z"/><path class="cls-1" d="M680.33,3.25a4.74,4.74,0,0,0-1.85-.09,1,1,0,0,0,.28.14A2.36,2.36,0,0,1,680.33,3.25Z"/><path class="cls-1" d="M652.85,3.26c.14.09.34.15.5.23s.59,0,.88-.06Z"/><path class="cls-1" d="M120.85,11.21a4.08,4.08,0,0,1-1.27-1C120,11,116,11.28,120.85,11.21Z"/><path class="cls-1" d="M1047.51,9.24a1,1,0,0,1-.82.49l.91-.06C1047.68,9.5,1047.7,9.34,1047.51,9.24Z"/><path class="cls-1" d="M679.21,12.12,674.84,12C676.06,12.07,677.65,12.12,679.21,12.12Z"/><path class="cls-1" d="M318,11.05l-1,.13A2,2,0,0,0,318,11.05Z"/><path class="cls-1" d="M661.89,12.12a8.91,8.91,0,0,0-2.46-.77,1.58,1.58,0,0,0-.51.29Z"/><path class="cls-1" d="M119.57,10.19h0Z"/><path class="cls-1" d="M90.81,12.86c4.16,0,2-1.45,2.84-2.3,5-.42,2.29,1.09,4,1.85,3.1-.4,5.48-1.75,7.79-1.69.18.24.63.33.1.63,3.28-1.17,9.73-.06,13.55-1.53a1.08,1.08,0,0,1,.5.37,2.33,2.33,0,0,1-.59-2c1.87,0,3.46-.94,4.16,0-1.14,0-1.23.36-1.77.66l1.95-.42c1.76,1.39-2.66.48-2.66,1.51,3.81-.45,8.25-1.6,11.17-1.21.61,1.36-6.83.46-2.93,1.67l-4.52-.52c3.45,2.14-2.75-.15.43,2.14,5.94.4,6.65-.69,12.58-.29,1.33-.76-.44-1.12.89-1.88,8.43-1.35,6.64,3.42,12.83,1.61,1.61-.9,2.23-2.62,6.64-1.71l-1.5,1.53c5.76.15,3.29-2.21,9.31-1.17-1.07.6-4.52.51-3.65.69,3.91,1.21,2.76-.87,5.77-.87l.62,1.36c6.13-.22,12.88-1.2,19.67-1.45-.38.41-1.54.83,0,1.25,8.57-.68,18.28.17,26.54,1l3.15-1.17c.74,0,1.36.53.57.76,3.22.44.17-.75,1.71-1.21,1.83-.08,2.42.68,1.26,1,5.68-1,16.18-2.15,22.16-.89l-1.17.35c4.66.48,5.26-2.41,9.58-1.31l-.83.21c10.12.5,21.29-.57,29,1.2,1.46-1.69,10,.76,10.66-1.6,5.77,1.17,4.12,1.59,12.25,2.37,2.17.11,3.24-1.47,5.92-1.72l.07,1.24,3.64-1.3,1.94,1.48,2.52-.32c-1-.07-2.13-.55-2-.91,3.93-.55,9.59.86,9.69,1.49l9.3-1c-.2.5-1.76.67-3,1,5-1.25.9,1.3,5.45.15-.61-.28.33-.73.44-1,2.26.74,7.43.75,11.25.43l-.73.85c6.9.22,14.55-.4,22.3-.39-2.78-.39-2.14-1.87.13-2l.91,1.3c1.47-.8-2.37-.49.64-1.47,2.89.15,1.94,1.48.28,1.9L375.2,11c.21.39-.62.59-.83,1.09,1.44-.81,6.07,1.31,8.15-.1l.2.39c7.75,0,11.26-.44,17.57-.5.12-1.13,2.59-.88,4.47-1.79,4.64.36,9.78,1.25,15.37,1.15,3.93-.56,1.15-.95,2.91-1.62.29,1,5.87.93,3,1.66,6.7-.16,8.56-.2,17-1-.92-.42-2-.6-1.42-.95,1.54-.17,3.5.43,3.28.92l-.41.1c9.52-1.53,22,3,29.55.85l-.42.11,7.86-1.11c3.61.17-2.17.77.5,1.4,8.48-1.71,13.4.25,20.38-.89,5.41,3,19.18-.21,26.47,1.72l-.42-.71c1.89-.7,2.28.4,3.67.57-.19-.56-2-.64-.87-1,16-.86,33,1,49.34,1.68,6,.19,3.4-3.68,10.95-2l-2.15,1.32c12.09-1.58,24.72.05,36.55-1.29-.71.3-.73.7-1.88.7,2.5,1,9.24,0,9.28-.74,1.84.09.43.71,1.56,1.11,2.51.56,6.3-1.23,7.63-.27.23.15-.71.31-1.16.38,1.63-.46,7.61.12,6-1,4.44.53,8.5-.49,12,.17,2.31-1.24,7.6.59,8.33-1.16-.31,1.81,7.79,1.46,10.6.61-.94.55,2.44.57,1.34,1.32,3.2,0,6.14-.36,5.58-1.29,5.9,2.17,11.86-1.74,15.19,1,9.52-1,18.32-1.63,26.89-2-.31,1.8-9.47.18-9.1,2.07,8.12-.74,12.81-2.29,20.86-1.85,2.09.24-1.18.78-1.89,1.09,8.12-.75,15.69.16,22.91-.82,0,.17-.8.35-1.53.49,1.42-.06,3.31.26,3.15-.56l-1.39.23C758.1,9.27,766,8,766.28,7.34c-2.42,2.35,7.13.59,3.29,3.56.94-.15,2.11-.54,1.9-1.09,1.39.16,1.83.48.42,1.1,5.1-.44,3.29-1.31,7.9-1.3,0,.4-.94.55-1.42,1A19,19,0,0,1,787,9.42c-.24.24.22.55-1,.54,6.7-.12,11.43-2.06,18.78-1.31-2.17,1.72,2.5.57,2.89,2.06l4-.44-1.58-.73c3.46,0,6.52-1.06,9.5-.57L817,9.58l6.49-.28-3.67-.57c3.51-.77-.37-1.89,4.24-1.47-.94.15,3.46,0,5.27.9h0a13.42,13.42,0,0,1,6-.6c.67.47-.53,1.65-.1,2,1.69-1.25,8.11-.35,10.25-1.68-.71.31-.75,1.1-.52,1.26l1.42-1c1.61.33,1.84.48,1.58,1.11,4.83.18-1.53-1.9,4.2-1.08-.45.08-.24.23-1.18.39,5.76.42,11.12-.65,16.4-.15,1.56,1.51-4.61.37-2.83,1.64,7.62-.27,15.78-1.8,23.16-1.45l-1.38-.16c1-2.13,5.5,1,9.23,0-.92.16-1.2,1.18-.95.94,5,.35,10.32-.52,18-1.18l-1,.54c3,.49,7.84.28,11,.53,1-.54,2.8-.46,1.68-1.25,9.91,3.11,18.91-1.66,27.71.92-1.06,0-2.51.48-1.68.48l7.5-.5c-.6-.92-1-.56-2.56-1.28a11.69,11.69,0,0,1,4.92-1c-3.37.61,0,1.48,1.49,2-.25-.29.25-.6.13-.89,3.91,1.65.65-1.86,6-.75l-.29.49c2-.25,3.85-.89,6-.75.9,1.07-2.13.5-2.26,1.38,3-.07,6-2,8.72-1-1.29.29-3.14.3-4.43.59,3,1.26,3.33.94,5.55,1.14l-.22,0,5.13.57-1.3-.34c3.79-2.79,7.72-.51,12.82-2.34-5,1.73-.82,1-1.2,2.22,1.31.33,3.29.71,2.72,1,2.42-1,4,.77,7.44-.66.15.39,2.58,0,2,1,3.13-.31-.75-.68-.48-1.17,4.83-1.33,11.37,1.62,18.32-.21,6-.75,7.11-2.07,12.68-2.73,1.88.63-1.54,1.43-1.54,1.43a22.22,22.22,0,0,0,8.17,0c-.58.34,0,.63.89,1.06,2.29-.1,1.53-1.42,4.56-.84a8,8,0,0,1-2.29,1.57c2.7-.36,5.37-1.09,8.16-1.44.74.68-1.69,1-2.67,1.47,3.14-.3,8.14-.61,9.11-1.69l-2-.38c1.14-.06.59.92-.26,1.12-2.69.84-3.88-.38-4-.77l2-.25c-2-2.29-8,.37-12,.24l1.67-1.67-4.12,1.38c-.87-.43-1.47-1.36.51-1.61-2.87-.82-2.54.59-5-.32-.27-.15-.15-.23.1-.29l-2.81.49c.55-.35-.46-1.17,1.26-.93-5-1-8.13,1.25-10,0l.43-.11c-7,.57-.68,1.23-5.93,2.66l-3.53-3L1019,5.63c-.73,0-2.15-.14-1.89-.63-2.68.84.46.53-1.1,1.32-3.47-1.11-9.58.52-10.36-1.42-1.24.93,3.32.71-.38,1.36-1.06-2.09-4.29.36-7.46-.6,1-1.08,4-.51.8-1.47-1.91,1.82-6.18-.4-8.85-.05-.13,1.45-5.82.6-10.31,1.09.28-.49-8.45-.8-12.63-1.33l.13-.24c-.81,1.47-5.12,1.19-8.26,1.49.12-.88.69-1.22,2.39-1.62h-3a7.26,7.26,0,0,1-3.53.89l.74-1.1c-3.92.06-7.9,1.29-13,.56-.28,1,4,2.85-1.32,3.54-.2-.56-.4-1.51,1-1.73a6.23,6.23,0,0,1-2.55.22L941.68,5c-2.3-.41-1.2.78-3,.69,0-.79-1.36-.56-1.1-1.19.47-.08,1.61.33,2.31,0-2.07-.14-4.58-.61-5.41-1.21.18.45,0,1.06-1.52,1.17-3.92,0-1.34-.95-3.63-1.36-.95.55-3.46,0-3.52,1.16-1.15,0-1.36-.56-1.81-.88-2,.52-9.49.15-7.2,1.41l.52.08a2.57,2.57,0,0,1-.33,0h0c-6.66,1.18-13.83-.67-20.44-.16v-.4c-3.94.46-8.78.27-11.59,1.12-1.17,0-2.76-.72-2.26-1.19-3,.3-3.35.74-7.71.09,3-.69-1-.61,3.11-.51-3.92-.34-4.81-1-9,.11,1.43-1-2.95-1.27-4.81-1l2.74.72a46.18,46.18,0,0,1-5.78,0l1-1.33c-8-1.62-14.46,2.76-20.56.05-2.12.93,4.36.65,2.46,1.74-3.69-.18-7.53-2.09-8.69-2.09-5-.74-4.71,1.94-10,1.44.68.47,1.32,1.74-2.63,2.19-3.69-.18-4.54-2-2.21-2.38.89,0,1.31.12,1.28.28,1.19-.18,2.75-.38,1.29-.89l-.48.47c-1.83-.48-6.9-.43-5.71-1.21-2.79.45-1.19.78.87,1-4.73-.68-7.39,0-12.27-.48.78.26,1.49.82.72.81-7.14-.58-3.14.91-8,1.11-2.75-.72,1-1.72-3.89-1.12-3-.49-.63-1.26.56-1.64-4.44.91-8.3-.61-10.84-.77l2.34-.39a21.31,21.31,0,0,1-3.71.22l1.34,1c-1.38-.16-2.54-.17-2.51-.56-1.42.62,1.08,1.58-1.73,2.43-1.83-.49-5.57.51-6.21-.75,5.76.43-.63-1.26,4.24-1.46a12.57,12.57,0,0,1-3.46,0c-.21-.14.19-.26.57-.33-5.51-1.13-2.54,1.42-8.25,1.4.73-.71-1.32-1.35-2.25-1.2,2.3,0,1.1,1.18-1,1.73-3.66-.55-4,.41-5.9.35l2.19.26c-.74.71-2.57.61-5.13.84-.22-.56,2.32-.38,1.41-.63-2.83,1.25-6.4-1.29-10.36-.45-1.83-.48-.17-1.33-1.78-1.66-4.43.92-4.8-1-9.45-.21,1.34,1,1.57.72-1.71,1.65l7.66-.67L735.5,3.79c2.31,0,4.87-.6,6.25-.44-2.34.78-2.1.54-1,1.33-3.16-1.43-6.27.84-9.92-.13L731,2.19c-5.49-1.06-9.76,1.21-16.89.61l2.29.41c-1,.94-4.4.14-6.71.52.21-.79-1.23-1.08-2.21-1.57.12.58-5.22-.06-5.87,1.52l-3.19-1c-5.76-.42-6.57,2.25-12.1,2,1.66-.86-.85-1.42,2.85-2-1.84,0-3.51-.15-3.53.4-1.08-.5-5.13,1.06-6.83.31-.78.35-1,1.17-3.11,1.11-.22-.16,0-.39,0-.39,0,.39-3.25.53-1.44,1.4-5.69-2.46-15.91.18-20.87-1.93-4,.26-8.89.51-12.55.57.23-.23,0-.39.7-.31-5-.73-3.1,2.27-8.85,1.45-2.94-1.28,3.05-.69,1.22-1.18-.8-2.59-6.94.36-10.81-1.16l.94-.15c-3-.88-7.21,1-12,.8,0,0,.23-.23,0-.39-3.3,1.32-9.55,1.76-14.2,2.13,1.45-1,2.11-.54,1.23-1.57-2.09.14.61,1.65-3.55,1.94-1.35-.55-4.35-1-4.75-2.14l3.92-.06c-2-1.43-5.07.05-7.14-.2l.26-.62c-6,.2-6.09,1.77-12.55,1.66l.67.47c-3.54,1.56-3-.88-6.49.28l-1.06-1.58C566,3.81,560.16,5,556,5.26c2.37-1.18,7.25-1.77,10.28-2.47-2.31,0-7.85.12-9,.9a7.81,7.81,0,0,1,3-.3,27.71,27.71,0,0,1-11.16,1.82c.81-3.06-12-.77-15.33-3.14-8.14,1.13-16.15-.49-25.64-.31,3.37,2.39-2.77.07-2.18,2.52-2.21.15-3.05.11-3.25,0L496,2.77c-1.58-.71,2.1-.53,1.9-1.08-4.83-.19-2-1-5.23-1.69.66.87-1.68,1.25-4.44.92l3.89,1.13c-6.76,1.3-5.85-2.06-12.66-.77l2.16-.77c-3.5.46-12.9,0-16.33,2-.62-.28-1.43-.95.1-1.13-8.35-.29-18.59,2.1-25.09.89l.64-.6c-1.56.17-2.72,1.12-4.67.52.1-.25.63-.6-.09-.63-.83.2-4.14,1.05-6.21.7l1.77-.68c-8.15-.78-12.51,1.64-19.35,2.05,0-1.76-6.39-2.33-9.59-2.62l.11-.24C393.39.5,386.76,2.17,378,2.87,372.52,1,359.49,2.07,350.73,1c1.34.32-.22,1.38-1.78,1.55-2.06-.35-5.69,1.22-5.36-.39l.73,0C342.77.6,338.54,1,335.24,1l-.54,2.12C326.06,0,312.07,4.22,307.36,1.46c-2.09.53-4.67.53-6.73,1l.11-1.13a144.56,144.56,0,0,0-15.8-.16L286.4.41c-4-.07-5.08,3.27-8.8,3.33l-1.11-1.69c-7,0-14.14-1.46-21.08.08.12-.25.33-.74,1.46-.81-3.3,0-12.79-1.14-11.58,1.18C245.2,1,238,2.35,234.25,3l.59-1.12c-3.21,1.43-3.31,1.82-7.78,2.21-1.06-.15-.93-.89.48-.61-3.53-.58-2.75,1.06-7,.46l1.59-.71c-3.63-.08-3.34.3-5.34,1.13-2.28.45-6.89-.28-7.43-1.29-.48.61-2.47,1.44-4.61,1.15-.29-.39.49-.62.88-.74-6.08-.76-9,1.3-13.21.2a.92.92,0,0,0-.71-.66c4.83,0,8.71.09,8.35.17,0-1-3.9-1.21-.8-2.63-3.12.78-8.47,2.46-12.27,2a1.53,1.53,0,0,1-.5-.36l.39-.12a7,7,0,0,0-2.4.17,23.31,23.31,0,0,0-3.15-.31c-.45-.85-4.47-.46-6.41-.5.16,1.13-2.39,1,0,1.87-.31-.08.36-.13,1.66-.18a5.6,5.6,0,0,0,.83-.11l-.14.1c1.28,0,2.94-.06,4.83-.08a7.77,7.77,0,0,1-5.28.43c-1,.72-2.1,1.46-2.72,1.81-2.66-1.57-7.78-2.41-8.5-3.38-5.93.63-14,.42-17.71,2.53-1.69.27-1.94-.61-2.57-.94A14.28,14.28,0,0,0,148,3c-3.37.54-10,.21-10.8,1.68-4.25-.66,2.39-1.36-3.45-1.11l.79-.46C123,.77,115.8,6.89,103.06,3.86c.88.19,1.32.28,1.5.52C90,3.05,74.63,5.64,60.29,3.52c-4.07-.43-4.51.51-7,1.23l-.88-1.21-4.25,1.4c-6,1-10.45-3-18.08-1l1,.82c-2.75-.16-8.69.48-8.23-.46a1.89,1.89,0,0,1-2,.42l-.08-.63L14.05,5.13c-5.22-.45.82-2.51-6.8-2.63-2.83.24-8.06,1.84-7,2.26,1.14,0,2.92.4,3,1L.67,6.12C.2,8-1.8,9.89,4.56,11.19L9,10.05l1.43.9L6.69,11c2.12.85,3.46.1,5-.42a3,3,0,0,0,1.86,1l4.34-1.78c.53.73-2,1.45,1,1.85,2-.83-1.95-1.64,1.42-2.18,2.12.85,1.5,1.54,4,.81.35.48-.18.79-1.16,1,2.21-.57,5.86-.24,7-1.23,2.21,1,7.48-.27,7.26,1.49a18.54,18.54,0,0,1,5.93-1.46c-3.71,2.11,7.61.13,6.63,2.39,2.75-1.9,9.94-.84,14.81-1.9a2,2,0,0,1-1.24.36c2.74.16,3.54.73,5.3,1.09.35-1.57,4.62-1.93,6.92-2.89,3.36,1.51-2,1.84-1,3.29-.17-1.27,5.84-1.27,4.69-2.33,2.57.94,2.22.46,3.54,1.76.45-2,2.39-.33,4.53-1.54,3.71,1,1,1.84,5,1.24C94.44,12.16,90.81,12.86,90.81,12.86ZM188,9.47v0l-2,.06Zm8.16,0c-1,0-2.23,0-3.54,0-.29-.39,0-.79.85-.77C193,8.9,194.92,9.12,196.14,9.45ZM178.87,1.66c1.29-.16,1.73.06,1.9.29-.61,0-1.32.06-2.26.13,0,0-.11.09-.15.14A1.42,1.42,0,0,1,178.87,1.66Z"/><path class="cls-1" d="M176.55,3.13a3.46,3.46,0,0,1-.54.08c.27.1.52.19.78.26l.45-.35Z"/><path class="cls-1" d="M916.76,4.8l-.17,0a1.34,1.34,0,0,1,.36.16C916.84,4.88,916.84,4.84,916.76,4.8Z"/><polygon class="cls-1" points="308.9 11.6 308.89 11.32 308.17 11.57 308.9 11.6"/><path class="cls-1" d="M961.74,8.66a1.11,1.11,0,0,0,.59.29C962.3,8.87,962.05,8.77,961.74,8.66Z"/><path class="cls-1" d="M981.16,8.91l2.75.4A25.87,25.87,0,0,0,981.16,8.91Z"/><path class="cls-1" d="M996.1,9.47a1.23,1.23,0,0,0,.29-.48h0Z"/><path class="cls-1" d="M758.61,10.79a3.58,3.58,0,0,0-.58.05C756.68,11.06,757.6,11,758.61,10.79Z"/><path class="cls-1" d="M829.28,8.16a19.19,19.19,0,0,1-2.27.53C828.27,8.78,829.25,8.8,829.28,8.16Z"/><path class="cls-1" d="M679.69,12.14s0,0,0,0c-.17,0-.32,0-.49,0Z"/><path class="cls-1" d="M823.73,8.67a9.27,9.27,0,0,0,3.28,0A15,15,0,0,0,823.73,8.67Z"/><path class="cls-1" d="M1060.84,10l.72,0a.22.22,0,0,1,.08-.18Z"/><path class="cls-1" d="M1061.64,9.84l.8-.13A1.37,1.37,0,0,0,1061.64,9.84Z"/><path class="cls-1" d="M1064.12,9.43l-1.68.28A2.83,2.83,0,0,0,1064.12,9.43Z"/><path class="cls-1" d="M1041.06,9.46l-.22.41A.56.56,0,0,0,1041.06,9.46Z"/><path class="cls-1" d="M1035.06,9.58c1.43.09,3.59.87,5.59.61l.19-.32C1039.9,10.47,1036.42,8.89,1035.06,9.58Z"/><path class="cls-1" d="M1010,4.54l5,.32c-.88-.43-2-1,.25-1.12C1008.92,2.44,1016.57,4.71,1010,4.54Z"/><path class="cls-1" d="M994.36,3.91c2.71-.21,0-.63.11-.88C992.76,3.43,992.34,3.53,994.36,3.91Z"/><path class="cls-1" d="M881.54,3.9l.27-1C879.72,3,881.79,3.28,881.54,3.9Z"/><polygon class="cls-1" points="859.97 9.19 862 9.83 862.96 8.89 859.97 9.19"/><polygon class="cls-1" points="847.23 1.9 848.14 1.76 844.66 2.13 847.23 1.9"/><path class="cls-1" d="M657.74,2.27l.63,1.26C659.77,3.3,660.07,1.88,657.74,2.27Z"/><path class="cls-1" d="M575.93,3.55a5.74,5.74,0,0,0-4.61-.42C573.16,3.22,575,3.71,575.93,3.55Z"/><polygon class="cls-1" points="330.59 1.5 332.24 1.07 329.14 1.43 330.59 1.5"/></g></g></svg>