<!--
  - Baah Box
  - Copyright (c) 2024. Orange SA
  -
  -   This program is free software: you can redistribute it and/or modify
  -   it under the terms of the GNU General Public License as published by
  -   the Free Software Foundation, either version 3 of the License, or
  -   (at your option) any later version.
  -
  -   This program is distributed in the hope that it will be useful,
  -   but WITHOUT ANY WARRANTY; without even the implied warranty of
  -   MERCHANTABILITY or FITNESS FOR A PARTICULAR PURPOSE. See the
  -   GNU General Public License for more details.
  -
  -   You should have received a copy of the GNU General Public License
  -   along with this program. If not, see <http://www.gnu.org/licenses/>.
  -
  -->

<svg xmlns="http://www.w3.org/2000/svg" viewBox="0 0 28 209.04"><defs><style>.cls-1{fill:#fff;}</style></defs><title>mouton_barriere</title><g id="Calque_2" data-name="Calque 2"><g id="Calque_2-2" data-name="Calque 2"><path class="cls-1" d="M1.52,208.52V13.66A12.54,12.54,0,0,1,14,1.16h0a12.54,12.54,0,0,1,12.5,12.5V208.52Z"/><path class="cls-1" d="M1.52,207.86c-.24.08-.11.28.55.24l.47-.33Z"/><path class="cls-1" d="M6,208.47c.77-.16,1.66-.44,1.16-.75-.77.32-1,.19-1.78.57-.66,0-1.15-.11-1-.23-.23.08-1-.07-1.37.14a6.82,6.82,0,0,0,3.07.05C6.24,208.32,6,208.41,6,208.47Z"/><path class="cls-1" d="M27,164.72l0,.41A3.79,3.79,0,0,0,27,164.72Z"/><path class="cls-1" d="M27.16,124.83c0,.3,0,.43.07.45C27.21,125,27.19,124.76,27.16,124.83Z"/><path class="cls-1" d="M27.53,118c0,.15,0,.27,0,.4A1.17,1.17,0,0,0,27.53,118Z"/><path class="cls-1" d="M27,164.72l.1-1.07C27,163.58,27,164.2,27,164.72Z"/><path class="cls-1" d="M14.82,207.67a4.18,4.18,0,0,0-.58.09l.55,0Z"/><path class="cls-1" d="M27.25,182.3v.32a1.69,1.69,0,0,0,.13.27Z"/><path class="cls-1" d="M27.3,195.79c0-.3-.27-.41-.39-.52a1.39,1.39,0,0,1,.19.66S27.22,195.9,27.3,195.79Z"/><path class="cls-1" d="M17.85,208.81l-.38,0Z"/><path class="cls-1" d="M27.31,172.64a.24.24,0,0,0,.1-.12S27.34,172.57,27.31,172.64Z"/><path class="cls-1" d="M2.84,192.88H2.78C2.81,193,2.83,193,2.84,192.88Z"/><path class="cls-1" d="M1.44,208.52v-.21a.37.37,0,0,0-.16-.05Z"/><path class="cls-1" d="M27.89,105.56v0C27.91,105.94,27.91,105.75,27.89,105.56Z"/><path class="cls-1" d="M10.87.38c1.4-.1-2.1.88,0,.63-.11,0,.31-.26.57-.43S11.75.25,10.87.38Z"/><path class="cls-1" d="M15.17,207.71h.56A5.07,5.07,0,0,0,15.17,207.71Z"/><path class="cls-1" d="M10.85,1h0l.21,0Z"/><path class="cls-1" d="M27.72,76.84a1,1,0,0,0-.13.29S27.66,77.06,27.72,76.84Z"/><path class="cls-1" d="M27.32,98.23l0-.53C27.33,97.91,27.32,98.08,27.32,98.23Z"/><path class="cls-1" d="M27.32,65.73a3.21,3.21,0,0,0,0-.78l0,.12A1.51,1.51,0,0,1,27.32,65.73Z"/><path class="cls-1" d="M27.32,54.17c0,.06,0,.14-.06.21s0,.25,0,.37Z"/><path class="cls-1" d="M2.7,157.74a2,2,0,0,1-.25.54C2.65,158.1,2.72,159.8,2.7,157.74Z"/><path class="cls-1" d="M14.83,207.83a.49.49,0,0,1,.34-.12h-.38C14.75,207.77,14.75,207.81,14.83,207.83Z"/><path class="cls-1" d="M25.1,65.26l0-1.84C25.12,63.94,25.1,64.61,25.1,65.26Z"/><path class="cls-1" d="M2.66,74.8l0,.42A1.36,1.36,0,0,0,2.66,74.8Z"/><path class="cls-1" d="M25.1,58a5.53,5.53,0,0,0,.2-1,.58.58,0,0,0-.08-.21Z"/><path class="cls-1" d="M2.44,158.28h0Z"/><path class="cls-1" d="M3.11,170.38c0-1.75-.36-.82-.57-1.19-.11-2.09.27-1,.46-1.68-.1-1.3-.44-2.3-.42-3.28.06-.07.08-.26.16,0-.3-1.38,0-4.09-.39-5.7a.93.93,0,0,1,.09-.21c-.18.26-.37.3-.5.25,0-.79-.24-1.46,0-1.75a1.38,1.38,0,0,0,.16.74L2,156.7c.34-.74.12,1.12.37,1.12a39.64,39.64,0,0,1-.3-4.7c.34-.25.12,2.88.42,1.24l-.13,1.9c.53-1.45,0,1.15.53-.18.1-2.5-.17-2.8-.07-5.29-.19-.57-.28.18-.47-.38-.34-3.55.86-2.79.4-5.4a4.11,4.11,0,0,1-.43-2.79l.39.63c0-2.42-.55-1.38-.3-3.92.16.45.13,1.9.18,1.54.3-1.65-.22-1.16-.22-2.43l.34-.26c-.05-2.58-.3-5.42-.36-8.27.1.15.21.64.31,0a111.7,111.7,0,0,1,.24-11.17L2.62,117c0-.31.13-.58.19-.24.11-1.36-.19-.07-.3-.72s.17-1,.25-.53a52.61,52.61,0,0,1-.22-9.33l.09.49c.12-2-.6-2.21-.33-4l.05.35c.13-4.25-.14-8.95.31-12.2-.43-.62.18-4.21-.41-4.48a41.31,41.31,0,0,0,.6-5.16c0-.91-.37-1.36-.43-2.49l.31,0L2.4,77.1l.37-.82-.08-1.06c0,.43-.14.9-.22.84A11.61,11.61,0,0,1,2.84,72l-.26-3.92a4.43,4.43,0,0,1,.24,1.27c-.31-2.09.33-.38,0-2.3-.07.26-.18-.14-.25-.18a26.07,26.07,0,0,0,.11-4.74l.22.31c.05-2.9-.11-6.12-.1-9.38-.1,1.17-.47.9-.5-.06l.32-.38c-.2-.62-.12,1-.37-.27,0-1.22.37-.82.48-.12l-.11-1.48c.09-.08.14.26.27.35-.2-.6.32-2.55,0-3.43l.1-.08c0-3.26-.11-4.74-.13-7.39-.28,0-.21-1.09-.44-1.88.09-1.95.31-4.12.29-6.47-.14-1.65-.24-.48-.41-1.22.26-.13.23-2.47.42-1.26,0-2.82,0-3.6-.26-7.17-.11.39-.15.83-.24.6,0-.65.11-1.47.23-1.38l0,.17a38.92,38.92,0,0,1,.16-6.52c.05-.54.07-1.12.13-1.61A12.07,12.07,0,0,1,3,12.06c0-.22.07-.43.1-.65s.11-.41.15-.61l.23-1.13,0,.16A10.81,10.81,0,0,1,4.57,7c.87-1.1-.35.78.4,0A7.84,7.84,0,0,1,7.8,4.15a19,19,0,0,1,3.34-1.54,40.1,40.1,0,0,1,4.73.1,8.08,8.08,0,0,1,4.68,2.12l0-.23c.68.28.62.6,1,1,0-.15-.47-.64-.07-.42a10.48,10.48,0,0,1,3.8,8.19c-.11,3.48-.22,7-.33,10.41,0,2.52.92,1.43.49,4.61l-.33-.9c.4,5.08,0,10.39.33,15.37a1.8,1.8,0,0,1-.18-.79A10.15,10.15,0,0,0,25.4,46c0,.77-.18.18-.28.65-.14,1.06.31,2.65.07,3.21,0,.1-.08-.3-.1-.49.12.69,0,3.2.25,2.55-.13,1.86.12,3.57,0,5.06.31,1-.15,3.2.29,3.51-.46-.14-.37,3.27-.16,4.45-.13-.39-.14,1-.33.57,0,1.34.09,2.58.33,2.34-.55,2.49.43,5-.26,6.39.24,4,.4,7.72.51,11.32-.45-.13,0-4-.52-3.83a86.54,86.54,0,0,1,.47,8.78c-.06.87-.2-.5-.28-.8.19,3.42,0,6.6.21,9.64a1.94,1.94,0,0,1-.12-.64c0,.59-.07,1.39.13,1.32l-.05-.58c.3-1,.62,2.37.78,2.48-.59-1-.15,3-.89,1.39,0,.39.13.89.27.8,0,.58-.12.77-.27.17.11,2.15.32,1.39.32,3.33-.1,0-.14-.4-.25-.6a13.34,13.34,0,0,1,.3,3.61c-.06-.1-.14.09-.14-.4,0,2.82.52,4.81.33,7.9-.43-.91-.14,1.06-.51,1.22l.11,1.66.18-.66c0,1.45.26,2.74.14,4l-.15-1.08.07,2.73.14-1.54c.19,1.47.47-.16.37,1.78,0-.4,0,1.46-.23,2.21h0a8.91,8.91,0,0,1,.15,2.54c-.12.28-.41-.23-.49,0,.31.71.09,3.41.42,4.31-.08-.3-.27-.32-.31-.22l.25.6c-.08.67-.12.77-.28.66,0,2,.48-.64.27,1.77a4.57,4.57,0,0,1-.09-.49c-.11,2.42.16,4.67,0,6.9-.37.65-.09-2-.41-1.2.07,3.21.45,6.64.37,9.75l0-.58c.53.43-.26,2.31,0,3.88,0-.39-.3-.51-.24-.4-.09,2.12.13,4.34.3,7.56L26,163c-.12,1.26-.07,3.3-.13,4.65.13.41.11,1.18.31.71-.78,4.17.42,8-.23,11.66,0-.45-.12-1.06-.12-.71l.13,3.16c.23-.25.14-.42.32-1.08a8.26,8.26,0,0,1,.24,2.07c-.15-1.42-.37,0-.5.62.07-.1.15.11.22.06-.41,1.65.46.28.19,2.52l-.12-.11a20.33,20.33,0,0,1,.18,2.52c-.26.38-.12-.9-.34-1,0,1.27.51,2.51.24,3.66-.08-.54-.08-1.32-.15-1.86a8.35,8.35,0,0,0-.28,2.34v-.09l-.14,2.15.09-.55c.69,1.6.12,3.25.58,5.4-.43-2.09-.25-.35-.55-.51-.09.55-.18,1.39-.27,1.15.25,1-.19,1.7.17,3.13-.1.06,0,1.08-.26.86.08,1.32.17-.32.3-.21a11.22,11.22,0,0,1,.06,2.27c0,.2,0,.41,0,.62l0,.33,0,.2c0,.25-.05.47-.06.69a5.74,5.74,0,0,0-.72,0l-.6.05-.73.09c-2.52.18-3,.51-5.33.68-.79-.16.65-.36.65-.36a15.22,15.22,0,0,0-3.44,0c.25-.09,0-.16-.37-.27-1,0-.65.35-1.92.21a3.88,3.88,0,0,1,1-.39c-1.13.09-2.25.27-3.43.36-.31-.17.71-.26,1.12-.37a16.73,16.73,0,0,0-3.83.42l.85.1c-.48,0-.25-.23.1-.28,1.14-.21,1.64.09,1.7.19l-.83.06c.86.57,3.36-.09,5.05-.06l-.71.42,1.73-.35c.37.11.62.35-.21.41,1.21.2,1.07-.15,2.11.08.12,0,.06,0,0,.07l1.18-.12c-.23.08.2.29-.53.23,2.12.24,3.42-.31,4.22,0l-.18,0c2.93-.14.3-.31,2.47-.66a9.48,9.48,0,0,0,2,.75c-.1-.23-.2-.44-.3-.64s0-1,.15-.84c-.1-.71-.14-.63-.17-.52s-.06.29-.16-.06c.28-1.47-.13-4,.36-4.36-.23-.53-.18,1.4-.34-.16.52-.45-.09-1.81.15-3.14.27.41.13,1.67.37.34-.46-.81.1-2.6,0-3.73-.36-.05-.15-2.45-.27-4.34.12.12.2-3.55.33-5.31l.06.05c-.37-.34-.3-2.15-.37-3.47.22,0,.3.29.4,1v-1.24a4.58,4.58,0,0,1-.22-1.48l.27.31a48.88,48.88,0,0,1-.14-5.45c-.25-.12-.71,1.69-.88-.56.14-.08.37-.16.43.42a4.14,4.14,0,0,1-.06-1.07l.24.9c.1-1-.2-.51-.18-1.28.2,0,.14-.58.3-.46a5.2,5.2,0,0,0,0,1,9.15,9.15,0,0,1,.3-2.28c-.11.08-.27,0-.29-.64,0-1.65.23-.56.34-1.53-.14-.4,0-1.45-.29-1.48a1.29,1.29,0,0,1,.21-.76c-.13-.85,0-4-.35-3l0,.22s0-.09,0-.14h0c-.29-2.8.17-5.82,0-8.6H27c-.11-1.66-.07-3.7-.28-4.88,0-.49.18-1.16.3-.95a13.63,13.63,0,0,1,0-3.24c.17,1.27.15-.44.12,1.3a13.38,13.38,0,0,0,0-3.79c.25.61.31-1.24.24-2l-.18,1.15c0-.88,0-1.65,0-2.43l.34.42c.4-3.37-.69-6.08,0-8.65-.24-.89-.17,1.83-.44,1,.05-1.55.52-3.17.52-3.66.19-2.12-.48-2-.36-4.2-.11.28-.43.55-.54-1.11s.49-1.91.59-.93c0,.37,0,.55-.07.54.05.5.1,1.15.22.54l-.11-.2c.12-.77.1-2.91.3-2.41-.11-1.17-.2-.5-.26.37.17-2,0-3.11.12-5.16-.06.33-.2.63-.2.3.15-3-.23-1.32-.28-3.36.18-1.16.43.42.28-1.63.13-1.26.32-.27.41.23a23.22,23.22,0,0,1,.2-4.56l.09,1c-.05-.58-.05-1.07-.05-1.56l-.24.56c0-.57,0-1.06.14-1-.15-.6-.39.45-.61-.73.13-.77-.12-2.34.19-2.61-.11,2.42.32-.27.37,1.78a8.69,8.69,0,0,1,0-1.45c0-.09.07.08.09.24.28-2.32-.36-1.07-.35-3.47.17.3.33-.56.3-1,0,1-.3.46-.44-.43a13.65,13.65,0,0,0-.08-2.48l-.07.92A7.55,7.55,0,0,1,27,97c.14-.09.1,1,.16.59-.31-1.19.32-2.7.11-4.36.12-.77.33-.07.42-.75-.23-1.86.24-2,.05-4-.24.57-.18.67-.41-.71L27.53,91l-.34-2.07c0,1,.15,2,.11,2.63-.2-1-.14-.88-.34-.41.36-1.33-.21-2.64,0-4.18l.59,0c.26-2.31-.31-4.11-.16-7.11l-.1,1a16.73,16.73,0,0,1-.13-2.83c.2.09.27-.51.39-.93-.14.05,0-2.19-.38-2.47l.26-1.34c.11-2.42-.56-2.76-.49-5.09.21.7.35-.36.51,1.2,0-.77,0-1.47-.1-1.49.12-.45-.27-2.15-.08-2.87A2.51,2.51,0,0,1,27,63.76c0-.09.1,0,.1,0s-.13-1.37-.35-.61c.61-2.39-.05-6.69.48-8.78-.06-1.69-.13-3.74-.14-5.28.06.1.1,0,.08.3.18-2.13-.57-1.31-.37-3.73.32-1.23.18,1.29.3.52.65-.34-.09-2.92.29-4.55l0,.39c.22-1.24-.25-3-.2-5.06,0,0,0,.1.09,0a41.38,41.38,0,0,1-.53-6c.26.61.14.89.39.52,0-.88-.41.26-.48-1.49.14-.57.26-1.83.53-2l0,1.65c.36-.85,0-2.14,0-3l.15.11c-.05-2.53-.44-2.56-.41-5.28l-.12.28c-.39-1.48.22-1.24-.07-2.72l.4-.45c-.11-1-.37-3.43-.47-5.2a38.39,38.39,0,0,1,.63,4.33,21.24,21.24,0,0,0-.23-3.81,5.49,5.49,0,0,1,.08,1.27c-.33-1.16-.38-2.81-.88-4.73.2,0,.24-.27.17-.77a8.68,8.68,0,0,0-.68-1.9C25.24,6.36,24.1,5,23.77,4.22a18,18,0,0,0-4.65-3.09,12.45,12.45,0,0,0-6-1.1c1.56.51-1.26.08-.91.72C11.3.91,11,1,10.85,1l-.74.1-.72.17a9.31,9.31,0,0,0-1.45.44c-.73.15.8-.54.66-.63a4.83,4.83,0,0,1-1.41.53c-.16,0-.24-.06-.94.27.38,0-.5.67-1.5,1.47a13.08,13.08,0,0,1,1.58-.9C5.75,3,5.32,3.32,5,3.61s-.64.45-.9.66A5.16,5.16,0,0,0,2.23,6.55a7.84,7.84,0,0,1,.38-1c-.23.33-.5.86-.84,1.43A14.79,14.79,0,0,0,.94,9a7.43,7.43,0,0,0-.38,3.74c-.09.27-.27.65-.28-.07a20.7,20.7,0,0,0,0,2.84c0,.94.1,1.89.15,2.82a33.33,33.33,0,0,1,0,5L.3,23.09a6.14,6.14,0,0,1,.13,2c-.06,0-.15-.26-.16,0A12.08,12.08,0,0,1,.45,27.7L.28,27c-.19,3.43.41,5.26.51,8.14-.44,0-.58,2.69-.65,4l-.06,0c-.06,4,.36,6.78.53,10.48C.14,51.86.41,57.34.15,61c.08-.56.34.09.38.75C.44,62.64.84,64.17.44,64v-.31c-.39.66-.29,2.44-.3,3.82l.53.23C-.1,71.41,1,77.29.26,79.28c.14.87.13,2,.27,2.83l-.29,0c-.07,2.43-.1,3.64,0,6.65L0,88.09c0,1.7.82,2.14.83,3.7l-.42.47c0,3-.36,5.95,0,8.87-.06,0-.18-.14-.2-.61,0,1.39-.29,5.38.29,4.87-.38,0,0,3,.13,4.65l-.28-.25a10.5,10.5,0,0,1,.56,3.27c0,.44-.23.39-.16-.2-.14,1.48.27,1.15.12,3l-.18-.67A5.27,5.27,0,0,0,1,117.39a7.51,7.51,0,0,1-.32,3.13A3.81,3.81,0,0,1,1,122.46c-.1.12-.16-.21-.19-.37-.19,2.55.33,3.8,0,5.55-.09,0-.13.16-.16.3,0-2,0-3.66,0-3.51-.26,0-.3,1.64-.66.34a25.89,25.89,0,0,1,.5,5.16,1,1,0,0,1-.09.21l0-.16a4.71,4.71,0,0,0,0,1c0,.51-.07.83-.08,1.32A10.42,10.42,0,0,0,.26,135c.28-.07.23,1,.47,0,0,.13,0-.16,0-.7a3.06,3.06,0,0,0,0-.35l0,.06c0-.54,0-1.24,0-2a5.37,5.37,0,0,1,.1,2.23c.19.42.37.88.46,1.14-.39,1.12-.61,3.28-.85,3.58.16,2.49.11,5.88.63,7.45a1.63,1.63,0,0,1-.23,1.08,8.33,8.33,0,0,0-.12-1.12c.13,1.42,0,4.21.42,4.54-.17,1.79-.34-1-.28,1.46L.68,152c-.59,4.83.94,7.86.18,13.22a1.9,1.9,0,0,1,.13-.64c-.33,6.12.32,12.6-.21,18.63a8.07,8.07,0,0,0,.31,2.95l-.31.37.35,1.79c.26,2.53-.74,4.39-.26,7.6l.21-.41c0,1.15.12,3.65-.12,3.46a1.21,1.21,0,0,1,.11.83l-.16,0,.27,2.83c-.11,2.2-.63-.34-.66,2.87.06,1.19.46,3.39.57,2.94s.1-1.23.26-1.26l.08,1.09c.46.19.94,1,1.27-1.64l-.29-1.87.23-.6v1.57a4.14,4.14,0,0,0-.1-2.08,1.7,1.7,0,0,0,.25-.79l-.45-1.83c.18-.22.36.82.46-.4-.2-.86-.41.82-.54-.6.21-.89.38-.63.2-1.68.12-.15.2.08.25.49a18.41,18.41,0,0,0-.31-2.94c.26-.93-.07-3.15.37-3.06a12.93,12.93,0,0,1-.36-2.49c.53,1.56,0-3.21.6-2.79-.48-1.16-.21-4.18-.48-6.23a1.16,1.16,0,0,1,.09.52,16.23,16.23,0,0,1,.28-2.23c-.4-.15-.49-1.95-.73-2.92.38-1.41.46.86.83.42-.32.07-.32-2.46-.59-2,.24-1.08.12-.93.44-1.48-.49-.19-.08-1-.38-1.91.24-1.56.46-.4.31-2.12C2.94,168.85,3.11,170.38,3.11,170.38ZM2.26,129.5h0c0,.35,0,.65,0,.85C2.28,130.17,2.28,129.93,2.26,129.5Zm0-3.43c0,.41,0,.93,0,1.49-.1.12-.2,0-.19-.36C2.12,127.39,2.18,126.58,2.26,126.07ZM.31,133.33c0-.54,0-.72.08-.8,0,.26,0,.56,0,.95l0,.07A.56.56,0,0,1,.31,133.33Z"/><path class="cls-1" d="M.68,134.31a1.38,1.38,0,0,1,0,.22l.06-.32L.68,134Z"/><path class="cls-1" d="M26.93,165.2v-.07a.46.46,0,0,1,0,.15A.34.34,0,0,1,26.93,165.2Z"/><polygon class="cls-1" points="2.8 78.63 2.73 78.63 2.79 78.93 2.8 78.63"/><path class="cls-1" d="M26,184.12a.58.58,0,0,0-.07.25A.77.77,0,0,0,26,184.12Z"/><path class="cls-1" d="M25.91,192.3l-.1,1.15C25.86,193,25.89,192.59,25.91,192.3Z"/><path class="cls-1" d="M25.77,198.58a.27.27,0,0,0,.12.12h0Z"/><path class="cls-1" d="M25.44,98.67c0-.09,0-.17,0-.25C25.37,97.85,25.39,98.24,25.44,98.67Z"/><path class="cls-1" d="M26.09,128.4c-.05-.32-.1-.63-.13-1C25.94,128,25.93,128.38,26.09,128.4Z"/><path class="cls-1" d="M25.1,65.46h0v0Z"/><path class="cls-1" d="M26,126.06a6.4,6.4,0,0,0,0,1.38A10.58,10.58,0,0,0,26,126.06Z"/><path class="cls-1" d="M9.22,207.65l-.3,0a.07.07,0,0,1,0,.05Z"/><path class="cls-1" d="M8.88,207.68l-.34,0A.94.94,0,0,0,8.88,207.68Z"/><path class="cls-1" d="M7.84,207.78l.7-.07A1.89,1.89,0,0,0,7.84,207.78Z"/><path class="cls-1" d="M17.54,207.78l.09-.11A.16.16,0,0,0,17.54,207.78Z"/><path class="cls-1" d="M20.07,207.75a17.63,17.63,0,0,0-2.36-.16l-.08.08C18,207.52,19.49,207.92,20.07,207.75Z"/><path class="cls-1" d="M27,204.42l-.08,2.12c.11-.37.25-.86.28.1C27.52,204,27,207.2,27,204.42Z"/><path class="cls-1" d="M27.16,197.85c.05,1.14.15,0,.22.05C27.28,197.18,27.25,197,27.16,197.85Z"/><path class="cls-1" d="M27.16,150.38l.25.12C27.38,149.62,27.31,150.49,27.16,150.38Z"/><polygon class="cls-1" points="25.84 141.31 25.68 142.16 25.91 142.57 25.84 141.31"/><polygon class="cls-1" points="27.66 135.95 27.7 136.33 27.6 134.87 27.66 135.95"/><path class="cls-1" d="M27.57,56.23l-.32.26C27.31,57.08,27.66,57.21,27.57,56.23Z"/><path class="cls-1" d="M27.25,21.81a4,4,0,0,0,.1-1.94C27.33,20.64,27.21,21.42,27.25,21.81Z"/><polygon class="cls-1" points="0.27 69.5 0.17 68.81 0.25 70.11 0.27 69.5"/></g></g></svg>