<!--
  - Baah Box
  - Copyright (c) 2024. Orange SA
  -
  -   This program is free software: you can redistribute it and/or modify
  -   it under the terms of the GNU General Public License as published by
  -   the Free Software Foundation, either version 3 of the License, or
  -   (at your option) any later version.
  -
  -   This program is distributed in the hope that it will be useful,
  -   but WITHOUT ANY WARRANTY; without even the implied warranty of
  -   MERCHANTABILITY or FITNESS FOR A PARTICULAR PURPOSE. See the
  -   GNU General Public License for more details.
  -
  -   You should have received a copy of the GNU General Public License
  -   along with this program. If not, see <http://www.gnu.org/licenses/>.
  -
  -->

<svg xmlns="http://www.w3.org/2000/svg" viewBox="0 0 608.17 441.24"><defs><style>.cls-1{fill:#6d6a66;}.cls-2{fill:#fff;}</style></defs><title>mouton_03</title><g id="Calque_2" data-name="Calque 2"><g id="Calque_2-2" data-name="Calque 2"><path class="cls-1" d="M101.85,343.39S68.66,374,55.16,379.92s-9.36,25.39,10.31,10.89,51.23-34.69,51.23-34.69Z"/><path class="cls-1" d="M116.29,358.64S83.1,389.27,69.6,395.17s-9.36,25.39,10.31,10.89,51.22-34.69,51.22-34.69Z"/><path class="cls-1" d="M420.12,387.73s38,32.38,46.61,46,28.3,7.92,9.6-11.53-45.49-50.88-45.49-50.88Z"/><path class="cls-1" d="M433.55,371.59s38,32.38,46.61,46,28.3,7.93,9.59-11.53-45.49-50.88-45.49-50.88Z"/><path class="cls-1" d="M492.68,147.56s78.58,36.11,76.67-9.72-96.64-6.14-96.64-6.14S502.69,132.53,492.68,147.56Z"/><ellipse class="cls-2" cx="278.29" cy="229.24" rx="225.02" ry="169.52"/><circle class="cls-2" cx="130.73" cy="102.79" r="43.07"/><ellipse class="cls-2" cx="251.38" cy="93.75" rx="107.24" ry="93.75"/><circle class="cls-2" cx="378.27" cy="108.62" r="86.62"/><circle class="cls-2" cx="100.41" cy="298.74" r="54.75"/><ellipse class="cls-2" cx="204.65" cy="354.23" rx="87" ry="69.75"/><circle class="cls-2" cx="300.65" cy="380.48" r="39" transform="translate(-138.73 585.67) rotate(-76.72)"/><ellipse class="cls-2" cx="383.9" cy="349.71" rx="74.25" ry="69.77"/><ellipse class="cls-2" cx="92.21" cy="173.62" rx="50.95" ry="55.62"/><ellipse class="cls-2" cx="38.87" cy="219.79" rx="47.35" ry="34.78" transform="translate(-167.09 133.78) rotate(-57.31)"/><path class="cls-1" d="M458.14,145.86s147,.63,150,138.63-181.49-3.64-174-69.32S458.14,145.86,458.14,145.86Z"/><path class="cls-1" d="M393.65,164.49s-84,20.6-54,55.3,79.49-55.3,79.49-55.3S395.15,182.49,393.65,164.49Z"/><path class="cls-2" d="M569.94,262.86c3.56,3.69,7,7.42,10.51,10.95,1.78,1.76,3.57,3.48,5.42,5.06a31.08,31.08,0,0,0,5.77,4.06,8.36,8.36,0,0,0,2.86.93,3.84,3.84,0,0,0,1.19-.07,3.45,3.45,0,0,0,1-.5,6.32,6.32,0,0,0,1.71-2.32,17.64,17.64,0,0,0,1.15-3.26c1.2-4.67,1.52-9.77,2.09-14.85a45.7,45.7,0,0,1,1,15.47,18.15,18.15,0,0,1-1,4,9.3,9.3,0,0,1-2.56,3.87,6.6,6.6,0,0,1-2.32,1.29,7.65,7.65,0,0,1-2.58.29,11.89,11.89,0,0,1-4.36-1.29,28.83,28.83,0,0,1-6.52-4.83,58.06,58.06,0,0,1-5.22-5.79A70,70,0,0,1,569.94,262.86Z"/><path class="cls-2" d="M597,287.3a57.32,57.32,0,0,1,1.79,11.94c.13,2,.11,4,.1,6.05s-.18,4-.37,6c-.09,1-.21,2-.37,3s-.26,2-.44,3c-.42,2-.74,4-1.31,5.92a63,63,0,0,1-4.1,11.35c.91-3.92,1.91-7.77,2.57-11.69s1.29-7.83,1.66-11.78.62-7.9.7-11.87S597.21,291.32,597,287.3Z"/><ellipse class="cls-2" cx="463.39" cy="129.6" rx="29.47" ry="26.81"/><ellipse class="cls-2" cx="442.02" cy="158.41" rx="22.87" ry="20"/><circle class="cls-2" cx="443.32" cy="189.77" r="16.15"/><circle class="cls-2" cx="436.57" cy="221.99" r="22.91"/><circle class="cls-2" cx="483.84" cy="146.1" r="24.36"/><circle class="cls-2" cx="478.5" cy="110.92" r="35.18"/><circle class="cls-2" cx="503.12" cy="194.95" r="21.62" transform="translate(197.8 639.82) rotate(-76.72)"/><ellipse class="cls-2" cx="533.51" cy="184.35" rx="11.99" ry="14.26" transform="translate(-29.75 221.2) rotate(-22.81)"/><path d="M521.13,191.12a6.85,6.85,0,1,1-6.85-6.84A6.85,6.85,0,0,1,521.13,191.12Z"/><path d="M528.25,185.88c1.12,2.67,3.85,4.07,6.1,3.12s3.16-3.87,2-6.55-3.86-4.07-6.11-3.13S527.12,183.2,528.25,185.88Z"/></g></g></svg>