<!--
  - Baah Box
  - Copyright (c) 2024. Orange SA
  -
  -   This program is free software: you can redistribute it and/or modify
  -   it under the terms of the GNU General Public License as published by
  -   the Free Software Foundation, either version 3 of the License, or
  -   (at your option) any later version.
  -
  -   This program is distributed in the hope that it will be useful,
  -   but WITHOUT ANY WARRANTY; without even the implied warranty of
  -   MERCHANTABILITY or FITNESS FOR A PARTICULAR PURPOSE. See the
  -   GNU General Public License for more details.
  -
  -   You should have received a copy of the GNU General Public License
  -   along with this program. If not, see <http://www.gnu.org/licenses/>.
  -
  -->

<svg xmlns="http://www.w3.org/2000/svg" viewBox="0 0 608.17 487.67"><defs><style>.cls-1{fill:#6d6a66;}.cls-2{fill:#fff;}</style></defs><title>mouton_01 </title><g id="Calque_2" data-name="Calque 2"><g id="Calque_2-2" data-name="Calque 2"><path class="cls-1" d="M183.65,414.1s-.57,45.16-5.57,59,12,24.26,15,0,10-61,10-61Z"/><path class="cls-1" d="M204.65,414.1s-.57,45.16-5.57,59,12,24.26,15,0,10-61,10-61Z"/><path class="cls-1" d="M283.67,406.31s-.58,49.95-5.58,65.27,12,26.83,15,0,10-67.5,10-67.5Z"/><path class="cls-1" d="M304.67,406.31s-.58,49.95-5.58,65.27,12,26.83,15,0,10-67.5,10-67.5Z"/><ellipse class="cls-2" cx="278.29" cy="229.24" rx="225.02" ry="169.52"/><circle class="cls-2" cx="130.73" cy="102.79" r="43.07" transform="translate(8.32 215.36) rotate(-80.78)"/><ellipse class="cls-2" cx="251.38" cy="93.75" rx="107.24" ry="93.75"/><circle class="cls-2" cx="378.27" cy="108.62" r="86.62"/><circle class="cls-2" cx="100.41" cy="298.74" r="54.75"/><ellipse class="cls-2" cx="204.65" cy="354.23" rx="87" ry="69.75"/><circle class="cls-2" cx="300.65" cy="380.48" r="39" transform="translate(-180.98 324.03) rotate(-45)"/><ellipse class="cls-2" cx="383.9" cy="349.71" rx="74.25" ry="69.77"/><ellipse class="cls-2" cx="92.21" cy="173.62" rx="50.95" ry="55.62"/><ellipse class="cls-2" cx="38.87" cy="219.79" rx="47.35" ry="34.78" transform="matrix(0.54, -0.84, 0.84, 0.54, -167.09, 133.78)"/><path class="cls-1" d="M458.14,145.86s147,.63,150,138.63-181.49-3.64-174-69.32S458.14,145.86,458.14,145.86Z"/><path class="cls-1" d="M393.65,164.49s-84,20.6-54,55.3,79.49-55.3,79.49-55.3S395.15,182.49,393.65,164.49Z"/><path class="cls-2" d="M486.64,206.49c5,.17,9.94.37,14.85.42s9.77,0,14.57-.45a61.8,61.8,0,0,0,14.05-2.68,27.12,27.12,0,0,0,12-7.66,18.08,18.08,0,0,1-4.39,6.24,25.63,25.63,0,0,1-6.45,4.34,43.94,43.94,0,0,1-14.89,3.74,70.31,70.31,0,0,1-15.15-.41A66.1,66.1,0,0,1,486.64,206.49Z"/><path class="cls-2" d="M492.86,208.76a14.91,14.91,0,0,1-.48,3.79,22.62,22.62,0,0,1-1.24,3.58,20.75,20.75,0,0,1-1.86,3.31,12.3,12.3,0,0,1-2.64,2.8c.36-1.26.81-2.4,1.26-3.55s.92-2.26,1.41-3.38,1-2.22,1.6-3.31A28.12,28.12,0,0,1,492.86,208.76Z"/><path class="cls-2" d="M508.2,208.76a14,14,0,0,1,2.2,4.12,17.24,17.24,0,0,1,.94,4.63,14.18,14.18,0,0,1-.58,4.75,9.25,9.25,0,0,1-2.56,4,25.08,25.08,0,0,0,1-4.33,29.38,29.38,0,0,0,.11-4.3C509.18,214.72,508.66,211.84,508.2,208.76Z"/><path class="cls-2" d="M524.2,208.76a66.86,66.86,0,0,1,2.36,6.78l1.07,3.32c.37,1.1.79,2.18,1.23,3.38a8.72,8.72,0,0,1-2.65-2.69,15.08,15.08,0,0,1-1.56-3.42,16.82,16.82,0,0,1-.7-3.65A12.31,12.31,0,0,1,524.2,208.76Z"/><path class="cls-2" d="M536,202.44l2.54,3c.84,1,1.71,1.87,2.6,2.73a22.07,22.07,0,0,0,2.91,2.27,25.55,25.55,0,0,0,3.47,1.76,7.72,7.72,0,0,1-4.14-.35,10.7,10.7,0,0,1-3.6-2.22,12.84,12.84,0,0,1-2.52-3.32A10.21,10.21,0,0,1,536,202.44Z"/><path class="cls-2" d="M569.94,262.86c3.56,3.69,7,7.42,10.51,10.95,1.78,1.76,3.57,3.48,5.42,5.06a31.08,31.08,0,0,0,5.77,4.06,8.36,8.36,0,0,0,2.86.93,3.84,3.84,0,0,0,1.19-.07,3.28,3.28,0,0,0,1-.5,6.22,6.22,0,0,0,1.72-2.32,17.64,17.64,0,0,0,1.15-3.26c1.2-4.67,1.52-9.77,2.09-14.85a45.7,45.7,0,0,1,1,15.47,18.15,18.15,0,0,1-1,4,9.3,9.3,0,0,1-2.56,3.87,6.6,6.6,0,0,1-2.32,1.29,7.65,7.65,0,0,1-2.58.29,11.89,11.89,0,0,1-4.36-1.29,28.83,28.83,0,0,1-6.52-4.83,58.06,58.06,0,0,1-5.22-5.79A70,70,0,0,1,569.94,262.86Z"/><path class="cls-2" d="M597,287.3a57.32,57.32,0,0,1,1.79,11.94c.13,2,.11,4,.1,6.05s-.18,4-.37,6c-.09,1-.21,2-.37,3s-.26,2-.44,3c-.42,2-.74,4-1.31,5.92a63,63,0,0,1-4.1,11.35c.91-3.92,1.9-7.77,2.57-11.69s1.29-7.83,1.66-11.78.62-7.9.7-11.87S597.21,291.32,597,287.3Z"/><ellipse class="cls-2" cx="463.39" cy="129.6" rx="29.47" ry="26.81"/><ellipse class="cls-2" cx="442.02" cy="158.41" rx="22.87" ry="20"/><circle class="cls-2" cx="443.32" cy="189.77" r="16.15"/><circle class="cls-2" cx="436.57" cy="221.99" r="22.91"/><circle class="cls-2" cx="483.84" cy="146.1" r="24.36"/><circle class="cls-2" cx="478.5" cy="110.92" r="35.18"/></g></g></svg>