<!--
  - Baah Box
  - Copyright (c) 2024. Orange SA
  -
  -   This program is free software: you can redistribute it and/or modify
  -   it under the terms of the GNU General Public License as published by
  -   the Free Software Foundation, either version 3 of the License, or
  -   (at your option) any later version.
  -
  -   This program is distributed in the hope that it will be useful,
  -   but WITHOUT ANY WARRANTY; without even the implied warranty of
  -   MERCHANTABILITY or FITNESS FOR A PARTICULAR PURPOSE. See the
  -   GNU General Public License for more details.
  -
  -   You should have received a copy of the GNU General Public License
  -   along with this program. If not, see <http://www.gnu.org/licenses/>.
  -
  -->

<svg xmlns="http://www.w3.org/2000/svg" viewBox="0 0 960.47 905.09"><defs><style>.cls-1{fill:#ffd15c;stroke:#fff;stroke-linecap:round;stroke-linejoin:round;stroke-width:8px;}.cls-2{fill:#e26f3b;}</style></defs><title>crash</title><g id="Calque_2" data-name="Calque 2"><g id="Calque_2-2" data-name="Calque 2"><polygon class="cls-1" points="359 271.22 346.52 4 454.12 259.31 569.9 65.3 544.98 289.85 767.6 31.29 665.81 320.4 837.47 326.35 646.37 446.88 865.33 442.3 709.53 498.98 956.47 632.54 658.55 649.01 666.32 835.54 526.48 636.76 486.15 901.09 431.82 746.64 295.39 881.97 320.3 657.41 131.81 781.98 262.7 632.24 27.81 620.92 218.92 500.39 4 430.68 177.09 355.93 65.08 248.96 278.47 323.22 183.44 174.87 359 271.22"/><polygon class="cls-2" points="394.88 347.18 387.9 197.6 448.13 340.51 512.93 231.91 498.99 357.61 623.59 212.88 566.62 374.71 662.7 378.04 555.74 445.5 678.3 466.94 591.09 474.67 729.31 595.26 562.55 558.64 566.9 663.05 503.18 551.78 466.06 699.74 435.64 613.29 359.28 689.04 373.22 563.34 267.72 633.07 340.98 549.25 209.51 542.92 316.47 475.45 196.18 436.44 293.06 394.59 230.37 334.72 349.81 376.28 296.62 293.25 394.88 347.18"/></g></g></svg>