<!--
  - Baah Box
  - Copyright (c) 2024. Orange SA
  -
  -   This program is free software: you can redistribute it and/or modify
  -   it under the terms of the GNU General Public License as published by
  -   the Free Software Foundation, either version 3 of the License, or
  -   (at your option) any later version.
  -
  -   This program is distributed in the hope that it will be useful,
  -   but WITHOUT ANY WARRANTY; without even the implied warranty of
  -   MERCHANTABILITY or FITNESS FOR A PARTICULAR PURPOSE. See the
  -   GNU General Public License for more details.
  -
  -   You should have received a copy of the GNU General Public License
  -   along with this program. If not, see <http://www.gnu.org/licenses/>.
  -
  -->

<svg xmlns="http://www.w3.org/2000/svg" viewBox="0 0 353.6 449.34"><defs><style>.cls-1{fill:#6d6a66;}</style></defs><title>meteor_05</title><g id="Calque_2" data-name="Calque 2"><g id="Calque_2-2" data-name="Calque 2"><path class="cls-1" d="M10.57,179.57c0,36.21-18.62,78.81-6.44,107.61,6.06,14.33,40.41,57.61,55.21,65.31s20.4,5.83,30.66,13.83-3.23,19.9,10.87,35c11.29,12.11,86,48,96,48,11.65,0,83.72-7.68,102-37.5,12-19.58,102.63-76.24,21-120.18-30-16.13-74.16-58.09-60.87-98.91,8-24.5,18.78-10.53,18.78-39.4,0-31.19-62.73-19.25-16.94-60.36,11.77-10.57-14.45-19.2-17.64-38.82-2.48-15.24-6.07-29.34-13.64-38.11C213.82-2.15,208.29,51.28,189,37.93c-9.65-6.68-34.88-9.76-45-15.19C118.48,9,99.35-14.57,79.87,12.23,71.32,24,68.91,60.72,62.11,76.87c-7.18,17,6.17,18.21,1.36,37.74C55.54,146.77,10.57,149.53,10.57,179.57Z"/><path d="M15.76,188.79a50.31,50.31,0,0,0,100.62,0c0-27.79-13.53-54.69-41.31-54.69S15.76,161,15.76,188.79Z"/><path d="M239.31,330.9a42.27,42.27,0,0,0,84.54,0c0-23.34-11.36-45.94-34.7-45.94S239.31,307.56,239.31,330.9Z"/><path d="M151.64,258.13a25.16,25.16,0,0,0,50.31,0c0-13.9-6.76-27.35-20.65-27.35S151.64,244.23,151.64,258.13Z"/><path d="M22.09,291.66c0,13.89,33.08,55.15,47,55.15s24.3-40.16,24.3-54.06-6.76-27.34-20.66-27.34S22.09,277.77,22.09,291.66Z"/><path d="M162,31.84c-19.15,7.72-31.65,48.91-23.93,68.06a37.38,37.38,0,0,0,48.65,20.69c19.14-7.72,33.92-24.51,26.2-43.66S181.18,24.12,162,31.84Z"/></g></g></svg>