<!--
  - Baah Box
  - Copyright (c) 2024. Orange SA
  -
  -   This program is free software: you can redistribute it and/or modify
  -   it under the terms of the GNU General Public License as published by
  -   the Free Software Foundation, either version 3 of the License, or
  -   (at your option) any later version.
  -
  -   This program is distributed in the hope that it will be useful,
  -   but WITHOUT ANY WARRANTY; without even the implied warranty of
  -   MERCHANTABILITY or FITNESS FOR A PARTICULAR PURPOSE. See the
  -   GNU General Public License for more details.
  -
  -   You should have received a copy of the GNU General Public License
  -   along with this program. If not, see <http://www.gnu.org/licenses/>.
  -
  -->

<svg xmlns="http://www.w3.org/2000/svg" viewBox="0 0 301.91 303.97"><defs><style>.cls-1{fill:#6d6a66;}</style></defs><title>meteor_01</title><g id="Calque_2" data-name="Calque 2"><g id="Calque_2-2" data-name="Calque 2"><path class="cls-1" d="M290.42,149.15c0,27.25,20.23,59.31,7,81-6.59,10.79-21.54,17.78-37.63,23.58s-22.17,4.38-33.32,10.4-37.35,26.21-52.68,37.59c-12.27,9.12-57.47-12-68.37-12-12.68,0-16.15,21.43-36-1-13.05-14.74-38.89-51.78-46-55-31-14,11.44-43.87-3-74.59C11.75,140.64,0,151.15,0,129.43,0,106,31.42,110.72,18.42,84,12.93,72.73,34.12,69.57,37.59,54.8c2.7-11.47,6.59-22.08,14.83-28.68C69.51,12.43,95,10.63,116,.59c10.49-5,31.93,24,42.93,19.94,27.74-10.31,42.72-11.34,63.88,8.82a156.08,156.08,0,0,1,25.13,31.91c7.81,12.83-6.71,13.7-1.47,28.4C255,113.86,290.42,126.56,290.42,149.15Z"/><path d="M140.88,75A50.31,50.31,0,0,1,40.26,75c0-27.78,13.53-54.68,41.31-54.68S140.88,47.25,140.88,75Z"/><path d="M238.91,235.54c4.58,8.44-11.51,26-35.93,39.28s-43.34,25.6-47.92,17.16-15.64-28.69,22.71-44.75C203.39,236.49,234.33,227.1,238.91,235.54Z"/><path d="M104.74,220c0,13.89-24.19,31.48-42,31.48S40.26,233.89,40.26,220s8.67-27.34,26.47-27.34S104.74,206.11,104.74,220Z"/><path d="M271.88,158.66c0,13.89-32.19,52-60.37,25.51C198.53,172,189,166.58,189,152.69s8.05-46.34,25.85-46.34S271.88,144.76,271.88,158.66Z"/></g></g></svg>