<!--
  - Baah Box
  - Copyright (c) 2024. Orange SA
  -
  -   This program is free software: you can redistribute it and/or modify
  -   it under the terms of the GNU General Public License as published by
  -   the Free Software Foundation, either version 3 of the License, or
  -   (at your option) any later version.
  -
  -   This program is distributed in the hope that it will be useful,
  -   but WITHOUT ANY WARRANTY; without even the implied warranty of
  -   MERCHANTABILITY or FITNESS FOR A PARTICULAR PURPOSE. See the
  -   GNU General Public License for more details.
  -
  -   You should have received a copy of the GNU General Public License
  -   along with this program. If not, see <http://www.gnu.org/licenses/>.
  -
  -->

<svg xmlns="http://www.w3.org/2000/svg" viewBox="0 0 339.06 368.97"><defs><style>.cls-1{fill:#6d6a66;}</style></defs><title>meteor_04</title><g id="Calque_2" data-name="Calque 2"><g id="Calque_2-2" data-name="Calque 2"><path class="cls-1" d="M63.3,297.4C44,270.28,5.34,252.81.49,221.81c-2.42-15.43,4.47-33.05,13.1-50.29s44.49-26,49.06-40-19-46.86-15-69.12c3.27-17.81,62.14-6.49,70.77-14.27,10-9-10.54-55.35,21-47.19,20.74,5.36,58.75,37.31,66.66,35.44,34.41-8.12,26.44,53.64,59.6,73.91,19.89,12.16,25.93-22,41.29-.39,16.6,23.36-32.07,50.7-2.9,68,12.33,7.31,18.24,15.89,25.94,33.06,6,13.34,10.4,26.67,8.55,39.12-3.83,25.82-22.73,45.77-32.21,70.72-4.74,12.48-51.94-16.19-57.75-4.27-14.66,30-16.1,56.79-47.11,51.81-13.62-2.18-28-7-42.45-13.83-15.25-7.2-4.38-18.42-18.92-29.31C116.26,307.29,79.28,319.88,63.3,297.4Z"/><path d="M137.19,278.11c-19.66-27.65-17.76-66.13,4.22-85.94s55.74-13.46,75.39,14.19,28,64.06,6,83.88S156.84,305.77,137.19,278.11Z"/><path d="M186,186.06c-9.92-14-8.86-33.44,2.44-43.26,11.62-10.1,29.34-5.24,38.95,9.72,8.66,13.48,11.8,30.25,1.41,39.61C217.8,202,195.82,199.89,186,186.06Z"/><path d="M271.44,252.46c-9.83-13.83-.95-42,10-51.9s27.87-6.73,37.69,7.09,14,32,3,41.94S281.26,266.29,271.44,252.46Z"/><path d="M135.37,16.77c13-6.3,55.86,14.34,62.76,30.14s1.94,33.71-11.09,40-41.78,1.31-48.68-14.49S122.34,23.07,135.37,16.77Z"/><path d="M77.07,277.39c-20.61,6-59.64-26.11-67.08-50.67s3.25-49.31,23.86-55.29,44.18.21,51.62,24.77S97.68,271.42,77.07,277.39Z"/></g></g></svg>