<!--
  - Baah Box
  - Copyright (c) 2024. Orange SA
  -
  -   This program is free software: you can redistribute it and/or modify
  -   it under the terms of the GNU General Public License as published by
  -   the Free Software Foundation, either version 3 of the License, or
  -   (at your option) any later version.
  -
  -   This program is distributed in the hope that it will be useful,
  -   but WITHOUT ANY WARRANTY; without even the implied warranty of
  -   MERCHANTABILITY or FITNESS FOR A PARTICULAR PURPOSE. See the
  -   GNU General Public License for more details.
  -
  -   You should have received a copy of the GNU General Public License
  -   along with this program. If not, see <http://www.gnu.org/licenses/>.
  -
  -->

<svg xmlns="http://www.w3.org/2000/svg" viewBox="0 0 267.33 428.27"><defs><style>.cls-1{fill:#fff;}.cls-2{fill:#6d6a66;}.cls-3{fill:none;stroke:#b6f5fc;stroke-miterlimit:10;stroke-width:4px;}.cls-4{fill:#246a6d;}</style></defs><title>mouton_meteorite</title><g id="Calque_2" data-name="Calque 2"><g id="Calque_2-2" data-name="Calque 2"><ellipse class="cls-1" cx="148.04" cy="247.63" rx="109.47" ry="145.31"/><circle class="cls-1" cx="66.38" cy="342.91" r="27.81"/><ellipse class="cls-1" cx="60.54" cy="265" rx="60.54" ry="69.25"/><circle class="cls-1" cx="70.14" cy="183.06" r="55.94"/><circle class="cls-1" cx="190.06" cy="359.48" r="35.35" transform="translate(-203.47 461.86) rotate(-76.72)"/><ellipse class="cls-1" cx="222.29" cy="270.8" rx="45.04" ry="56.18"/><circle class="cls-1" cx="233.27" cy="184.56" r="25.18"/><ellipse class="cls-1" cx="213.02" cy="149.34" rx="25.37" ry="26.99"/><ellipse class="cls-1" cx="112.12" cy="367.79" rx="35.92" ry="32.9"/><ellipse class="cls-1" cx="149.29" cy="397.84" rx="22.46" ry="30.58" transform="translate(-56.53 26.09) rotate(-8.4)"/><ellipse class="cls-1" cx="83.69" cy="128.09" rx="17.31" ry="19.03"/><ellipse class="cls-1" cx="102.29" cy="141.89" rx="12.92" ry="14.77"/><circle class="cls-1" cx="122.55" cy="141.05" r="10.43"/><circle class="cls-1" cx="143.35" cy="145.42" r="14.79" transform="translate(-44.74 65.93) rotate(-22.5)"/><circle class="cls-1" cx="94.35" cy="114.89" r="15.73" transform="translate(-34.17 189.62) rotate(-80.78)"/><circle class="cls-1" cx="71.63" cy="118.33" r="22.72"/><circle class="cls-1" cx="85.41" cy="86.32" r="22.72"/><circle class="cls-1" cx="106.41" cy="63.6" r="22.72"/><circle class="cls-1" cx="82.99" cy="60.26" r="11.36"/><circle class="cls-1" cx="132.98" cy="55.39" r="11.36"/><path class="cls-2" d="M180.77,206.37s24.68,20.76,30.28,29.53,18.31,5,6.15-7.48-29.58-32.67-29.58-32.67Z"/><path class="cls-2" d="M85.73,194.55s-22.79,22.82-27.6,32-17.8,6.58-6.78-6.92S78,184.56,78,184.56Z"/><path class="cls-2" d="M186.14,305.82s20.91,24.56,29.72,30.11,5.12,18.27-7.45,6.19-32.85-29.38-32.85-29.38Z"/><path class="cls-2" d="M86.73,313.08S65.82,337.64,57,343.18s-5.12,18.27,7.45,6.2S97.31,320,97.31,320Z"/><path class="cls-2" d="M135.61,69.65S191.41,72,179.07,45.1,119.8,65.05,119.8,65.05,137.93,58.22,135.61,69.65Z"/><path class="cls-2" d="M104.4,60.29s94.86-3.52,100.49,85.43-117.2,2.51-114.12-40.06S104.4,60.29,104.4,60.29Z"/><path class="cls-2" d="M71.28,80.22S17.64,95.75,37.92,117.34,87.73,79.53,87.73,79.53,72.73,91.79,71.28,80.22Z"/><path class="cls-1" d="M179.67,132.79c2.62,2.11,5,4.31,7.47,6.4,1.22,1,2.43,2.06,3.66,3a20.53,20.53,0,0,0,3.7,2.33,4.75,4.75,0,0,0,1.6.47,1.23,1.23,0,0,0,.93-.23,3.25,3.25,0,0,0,.91-1.26,11.42,11.42,0,0,0,.69-2c.74-2.93,1-6.23,1.5-9.55a25.53,25.53,0,0,1,1.61,10,11.67,11.67,0,0,1-.5,2.76,6.49,6.49,0,0,1-1.69,2.85,4.94,4.94,0,0,1-1.68,1,5.56,5.56,0,0,1-1.9.31,8.42,8.42,0,0,1-3.12-.77,18.3,18.3,0,0,1-4.47-3.07,34,34,0,0,1-3.49-3.73A36.28,36.28,0,0,1,179.67,132.79Z"/><path class="cls-1" d="M129.21,141.05a83.34,83.34,0,0,0,4.79,7.82c1.68,2.52,3.53,4.92,5.43,7.24a84.82,84.82,0,0,0,12.8,12.48,79.88,79.88,0,0,0,15.2,9.35,112.8,112.8,0,0,0,17.15,6.12,55.55,55.55,0,0,1-18.33-3.23,58.07,58.07,0,0,1-16.49-9.09A60.31,60.31,0,0,1,136.94,158a59.07,59.07,0,0,1-4.64-8.14A43,43,0,0,1,129.21,141.05Z"/><path class="cls-1" d="M197.76,147.84a31.75,31.75,0,0,1,1.74,7.63,44.8,44.8,0,0,1,.23,7.85c-.07,1.31-.23,2.62-.38,3.92s-.4,2.59-.75,3.86a34.54,34.54,0,0,1-2.61,7.39c.34-2.61.8-5.12,1.07-7.67s.55-5.07.67-7.61.21-5.09.22-7.64S197.88,150.45,197.76,147.84Z"/><circle class="cls-1" cx="134.74" cy="90.76" r="13.96" transform="translate(-22.79 51.07) rotate(-19.82)"/><path class="cls-1" d="M147.05,86.41c2.16,4.6,7,6.86,10.92,5s5.26-7,3.09-11.63-7.05-6.86-10.92-5S144.88,81.8,147.05,86.41Z"/><path d="M146.25,87.81a4.42,4.42,0,1,1-4.6-4.23A4.44,4.44,0,0,1,146.25,87.81Z"/><path d="M150.7,84.23A2.89,2.89,0,1,0,151.84,80,3.16,3.16,0,0,0,150.7,84.23Z"/><path class="cls-3" d="M199.2,185.54A105.73,105.73,0,1,0,27.7,143S88.29,203.05,196,187.56Z"/><path class="cls-4" d="M28,142.87s66.66,60.18,173.39,41.87c0,0,7.12,8.1-4.31,13.25,0,0-99.78,23.87-170-39.82C27.11,158.17,19.2,152.78,28,142.87Z"/><path class="cls-1" d="M192.91,60.26a43.66,43.66,0,0,1,14.35,26.06l13.43-2.75S219.26,67,206.8,55.39Z"/></g></g></svg>