<!--
  - Baah Box
  - Copyright (c) 2024. Orange SA
  -
  -   This program is free software: you can redistribute it and/or modify
  -   it under the terms of the GNU General Public License as published by
  -   the Free Software Foundation, either version 3 of the License, or
  -   (at your option) any later version.
  -
  -   This program is distributed in the hope that it will be useful,
  -   but WITHOUT ANY WARRANTY; without even the implied warranty of
  -   MERCHANTABILITY or FITNESS FOR A PARTICULAR PURPOSE. See the
  -   GNU General Public License for more details.
  -
  -   You should have received a copy of the GNU General Public License
  -   along with this program. If not, see <http://www.gnu.org/licenses/>.
  -
  -->

<svg xmlns="http://www.w3.org/2000/svg" viewBox="0 0 290.31 388.16"><defs><style>.cls-1{fill:#fff;}.cls-2{fill:#6d6a66;}.cls-3{fill:#ffd15c;}</style></defs><title>spaceship_left</title><g id="Calque_2" data-name="Calque 2"><g id="Calque_2-2" data-name="Calque 2"><polygon class="cls-1" points="102.46 165.28 17.08 221.1 17.08 181.01 0 181.01 0.01 295.01 102.46 295 119.54 230 102.46 165.28"/><polygon class="cls-1" points="273.24 146.01 273.24 200.11 187.85 165.28 170.77 221.03 187.85 295 290.31 295.01 290.31 146.01 273.24 146.01"/><path class="cls-1" d="M151.13,8l-6-8-6,8C115.44,38.86,102.46,80,102.46,123.72V295h85.39V123.72C187.85,80,174.87,38.86,151.13,8Z"/><rect class="cls-2" x="136.61" y="71.68" width="17.08" height="67"/><rect class="cls-2" x="136.62" y="250.35" width="17.08" height="67"/><path class="cls-2" d="M119.54,261.51v67H68.31v-67C68.31,243,79.75,228,93.93,228S119.54,243,119.54,261.51Z"/><path class="cls-2" d="M222,261.51v67H170.77v-67c0-18.54,11.44-33.5,25.62-33.5S222,243,222,261.51Z"/><path class="cls-3" d="M196.41,388.16c-2.94-6.65-6.47-13.36-6.69-13.78L186,367.22l-2.46,8a43.92,43.92,0,0,1-2.56,6.66c-4-10.73-5.28-28.17-5.42-34.91l-.25-10.32-5.74,7.13A29.56,29.56,0,0,0,165,352a16.25,16.25,0,0,1-2-7c-.61-8.75,4.72-18.72,7.78-23.23h51.35c2.39,3.62,8.45,13.78,7.79,23.29a17.19,17.19,0,0,1-2,7,29.09,29.09,0,0,0-4.62-8.15l-5.72-7.16-.25,10.38c-.14,6.74-1.46,24.18-5.42,34.91a47.92,47.92,0,0,1-2.56-6.65l-2.46-8.05-3.72,7.16C202.91,374.77,199.36,381.51,196.41,388.16Z"/><path class="cls-3" d="M94,388.16c-3-6.65-6.47-13.36-6.69-13.78l-3.73-7.16-2.45,8a45,45,0,0,1-2.56,6.66c-4-10.73-5.28-28.17-5.43-34.91l-.24-10.32-5.74,7.13A29.88,29.88,0,0,0,62.48,352a16.39,16.39,0,0,1-2-7c-.61-8.75,4.72-18.72,7.79-23.23H119.6C122,325.34,128,335.5,127.39,345a17.2,17.2,0,0,1-2,7,28.6,28.6,0,0,0-4.62-8.15l-5.72-7.16-.24,10.38c-.15,6.74-1.46,24.18-5.43,34.91a49.43,49.43,0,0,1-2.55-6.65l-2.46-8.05-3.72,7.16C100.45,374.77,96.89,381.51,94,388.16Z"/><ellipse class="cls-1" cx="8.52" cy="183.16" rx="8.52" ry="11.15"/><ellipse class="cls-1" cx="281.79" cy="148.16" rx="8.52" ry="11.15"/><ellipse class="cls-2" cx="145.16" cy="250.35" rx="8.52" ry="11.15"/><ellipse class="cls-2" cx="145.16" cy="71.68" rx="8.52" ry="11.15"/></g></g></svg>