<!--
  - Baah Box
  - Copyright (c) 2024. Orange SA
  -
  -   This program is free software: you can redistribute it and/or modify
  -   it under the terms of the GNU General Public License as published by
  -   the Free Software Foundation, either version 3 of the License, or
  -   (at your option) any later version.
  -
  -   This program is distributed in the hope that it will be useful,
  -   but WITHOUT ANY WARRANTY; without even the implied warranty of
  -   MERCHANTABILITY or FITNESS FOR A PARTICULAR PURPOSE. See the
  -   GNU General Public License for more details.
  -
  -   You should have received a copy of the GNU General Public License
  -   along with this program. If not, see <http://www.gnu.org/licenses/>.
  -
  -->

<svg xmlns="http://www.w3.org/2000/svg" viewBox="0 0 390.93 507.28"><defs><style>.cls-1{fill:#fff;}</style></defs><title>ballon_02</title><g id="Calque_2" data-name="Calque 2"><g id="Calque_2-2" data-name="Calque 2"><path class="cls-1" d="M390.93,195.47c0,108-87.51,238.26-195.46,238.26S0,303.42,0,195.47,87.51,0,195.47,0,390.93,87.51,390.93,195.47Z"/><path class="cls-1" d="M223.63,496.23h-2.32c-2.58-11.7-5.06-21.54-7.45-29.73h0l0-.08c-.33-1.12-.65-2.2-1-3.26-2-7.88-4.63-27.37,16.78-31.91,0,0-37.4-61.49-66.5,0,0,0,20.41,5.52,13.21,35.25h0c-2.64,11.58-4.44,23.15-5.36,29.73h-1.85a5.53,5.53,0,1,0,0,11h54.5a5.53,5.53,0,0,0,0-11Z"/></g></g></svg>