<!--
  - Baah Box
  - Copyright (c) 2024. Orange SA
  -
  -   This program is free software: you can redistribute it and/or modify
  -   it under the terms of the GNU General Public License as published by
  -   the Free Software Foundation, either version 3 of the License, or
  -   (at your option) any later version.
  -
  -   This program is distributed in the hope that it will be useful,
  -   but WITHOUT ANY WARRANTY; without even the implied warranty of
  -   MERCHANTABILITY or FITNESS FOR A PARTICULAR PURPOSE. See the
  -   GNU General Public License for more details.
  -
  -   You should have received a copy of the GNU General Public License
  -   along with this program. If not, see <http://www.gnu.org/licenses/>.
  -
  -->

<svg xmlns="http://www.w3.org/2000/svg" viewBox="0 0 866.31 834.57"><defs><style>.cls-1{fill:#fff;}.cls-2{font-size:168px;fill:#f98885;font-family:MarkerFelt-Wide, Marker Felt;letter-spacing:-0.1em;}.cls-3{letter-spacing:0.03em;}.cls-4{letter-spacing:0em;}</style></defs><title>ballon_04</title><g id="Calque_2" data-name="Calque 2"><g id="Calque_2-2" data-name="Calque 2"><path class="cls-1" d="M400.78,758.54s20.41,5.53,13.21,35.25c-2.64,11.59-4.44,23.15-5.36,29.73h-1.85a5.53,5.53,0,1,0,0,11.05h54.5a5.53,5.53,0,0,0,0-11.05H459c-2.58-11.7-5.06-21.54-7.45-29.73h0l0-.08c-.32-1.12-.65-2.2-1-3.26-2-7.88-4.64-27.36,16.77-31.91Z"/><path class="cls-1" d="M400.17,758.54s15.48-116.22-149.54-65.21c0,0,36-136.84-135-83.42,0,0,75-126.6,0-159.6,0,0,138,18,81-153,0,0,144-30,30-171,0,0,167.1,126,239.56,0,0,0-2.54,165,141.47,51,0,0-9,168,168,96,0,0-171,138-51,240,0,0-105,36-78,111,0,0-72-9-63,54,0,0-87-33-75,30,0,0-27.59-3.82-41.37,50.21Z"/><path class="cls-1" d="M160.62,105.27a31.35,31.35,0,0,1-.11-9.33A34.7,34.7,0,0,1,163,86.79a32.89,32.89,0,0,1,12.17-14.72A41.91,41.91,0,0,1,193,65.67a57.9,57.9,0,0,1,18.59.6,123.25,123.25,0,0,0-18,2.47,49.94,49.94,0,0,0-16.21,6.65,35.73,35.73,0,0,0-11.59,12.73,43.27,43.27,0,0,0-3.37,8.22A48.9,48.9,0,0,0,160.62,105.27Z"/><path class="cls-1" d="M115.62,105.27a96.6,96.6,0,0,1-2.78-20.84,101.89,101.89,0,0,1,1.61-21.11A81.18,81.18,0,0,1,121,43a70.86,70.86,0,0,1,12.14-17.67l1.85-2c.64-.63,1.34-1.2,2-1.8l2-1.78c.34-.29.66-.6,1-.88l1.08-.8C142.55,17.08,144,16,145.45,15l4.6-2.78,1.15-.68,1.2-.58,2.41-1.17,2.41-1.16c.8-.41,1.66-.66,2.48-1l5-1.9c1.69-.54,3.41-1,5.11-1.48l2.56-.73c.84-.26,1.72-.37,2.59-.57l5.19-1,1.3-.26,1.31-.16,2.63-.33L190.6.49c3.52-.18,7-.38,10.52-.49,3.51.06,7,.15,10.5.26-3.48.31-7,.6-10.43.85L190.84,2.44l-5.11,1-2.55.48-1.28.24-1.25.33c-3.33.92-6.73,1.55-10,2.76-1.63.55-3.27,1.06-4.88,1.65l-4.75,2c-.78.35-1.61.61-2.35,1L156.43,13l-2.28,1.17-1.13.59-1.08.69-4.34,2.69c-1.38,1-2.72,2-4.09,3l-1,.76-1,.85-1.89,1.7c-.63.57-1.28,1.11-1.88,1.71L136,28.09c-9.42,9.8-15.49,22.5-18.54,35.86a114.31,114.31,0,0,0-2.71,20.49A123.12,123.12,0,0,0,115.62,105.27Z"/><path class="cls-1" d="M779.53,497.88a31.56,31.56,0,0,1,8.24,4.38,34.87,34.87,0,0,1,6.84,6.57,32.87,32.87,0,0,1,7.08,17.74,42,42,0,0,1-3,18.75,58,58,0,0,1-9.44,16,123.94,123.94,0,0,0,6.48-17,49.55,49.55,0,0,0,1.94-17.41,35.5,35.5,0,0,0-5.61-16.27,42.22,42.22,0,0,0-5.59-6.9A48.22,48.22,0,0,0,779.53,497.88Z"/><path class="cls-1" d="M801.12,458.4A96.43,96.43,0,0,1,820.74,466a101.35,101.35,0,0,1,17.75,11.55A81,81,0,0,1,853.16,493a70.9,70.9,0,0,1,9.68,19.13l.83,2.56c.24.87.41,1.75.62,2.62l.59,2.63c.09.44.2.88.29,1.32l.18,1.33c.23,1.78.49,3.55.69,5.33l.23,5.36,0,1.34-.06,1.34-.14,2.67-.14,2.67c0,.9-.21,1.77-.3,2.65l-.73,5.29c-.33,1.74-.77,3.46-1.15,5.19L863.2,557c-.18.87-.5,1.7-.74,2.55l-1.57,5.06-.41,1.26L860,567.1l-1,2.46-2,4.9c-1.52,3.17-3,6.34-4.61,9.47q-2.6,4.58-5.27,9.09c1.41-3.21,2.82-6.4,4.27-9.57l3.79-9.72,1.61-4.94.81-2.47.4-1.23.31-1.26c.79-3.36,1.87-6.65,2.36-10.06.29-1.7.64-3.38.89-5.08l.55-5.11c.07-.85.24-1.7.23-2.56l.06-2.56.06-2.56,0-1.28-.08-1.27-.29-5.1c-.2-1.69-.47-3.37-.7-5l-.18-1.26c-.08-.41-.19-.82-.29-1.24l-.58-2.47c-.2-.83-.36-1.66-.6-2.47l-.8-2.42c-4.08-13-12.31-24.38-22.57-33.47a114.18,114.18,0,0,0-16.68-12.2A122,122,0,0,0,801.12,458.4Z"/><path class="cls-1" d="M115.09,643.75a31.54,31.54,0,0,1-8.93,2.71,35,35,0,0,1-9.48.19,33,33,0,0,1-17.54-7.57A42.09,42.09,0,0,1,68,623.71a58,58,0,0,1-4.63-18,123.56,123.56,0,0,0,7.42,16.62A50.07,50.07,0,0,0,81.71,636a35.61,35.61,0,0,0,15.47,7.56,42.48,42.48,0,0,0,8.83.93A48.2,48.2,0,0,0,115.09,643.75Z"/><path class="cls-1" d="M127.68,687a96.48,96.48,0,0,1-19.24,8.5,101.74,101.74,0,0,1-20.71,4.36,81.46,81.46,0,0,1-21.32-.6,70.92,70.92,0,0,1-20.36-6.71l-2.4-1.24c-.78-.43-1.52-.94-2.29-1.41l-2.27-1.45c-.38-.24-.76-.47-1.13-.72l-1.07-.82c-1.42-1.1-2.86-2.17-4.26-3.28l-3.94-3.64-1-.92-.9-1L25,676l-1.79-2c-.62-.64-1.1-1.4-1.66-2.09l-3.22-4.26c-1-1.47-1.9-3-2.85-4.49L14.09,661c-.49-.74-.84-1.55-1.27-2.32l-2.46-4.7-.6-1.18-.53-1.21-1-2.43-2.08-4.85c-1.16-3.32-2.33-6.63-3.42-10Q1.3,629.22,0,624.16q1.91,4.89,3.73,9.78l4.18,9.56,2.35,4.64,1.17,2.31.59,1.16.66,1.11c1.82,2.94,3.38,6,5.44,8.79,1,1.41,1.94,2.85,2.95,4.23l3.22,4c.56.65,1,1.37,1.65,2l1.76,1.85,1.77,1.86.88.93,1,.84,3.8,3.41c1.34,1,2.71,2,4.06,3.08l1,.76c.35.24.72.45,1.08.68l2.16,1.34c.72.44,1.43.92,2.17,1.32l2.27,1.15c12,6.3,25.93,8.57,39.61,7.77a114.59,114.59,0,0,0,20.43-3.14A122.74,122.74,0,0,0,127.68,687Z"/><text class="cls-2" transform="translate(293.02 555.84) rotate(-15.41)">P<tspan class="cls-3" x="71.23" y="0">A</tspan><tspan class="cls-4" x="187.49" y="0">F !</tspan></text></g></g></svg>