<!--
  - Baah Box
  - Copyright (c) 2024. Orange SA
  -
  -   This program is free software: you can redistribute it and/or modify
  -   it under the terms of the GNU General Public License as published by
  -   the Free Software Foundation, either version 3 of the License, or
  -   (at your option) any later version.
  -
  -   This program is distributed in the hope that it will be useful,
  -   but WITHOUT ANY WARRANTY; without even the implied warranty of
  -   MERCHANTABILITY or FITNESS FOR A PARTICULAR PURPOSE. See the
  -   GNU General Public License for more details.
  -
  -   You should have received a copy of the GNU General Public License
  -   along with this program. If not, see <http://www.gnu.org/licenses/>.
  -
  -->

<svg xmlns="http://www.w3.org/2000/svg" viewBox="0 0 217.83 280.73"><defs><style>.cls-1{fill:#fff;}</style></defs><title>ballon_00</title><g id="Calque_2" data-name="Calque 2"><g id="Calque_2-2" data-name="Calque 2"><path class="cls-1" d="M98.34,269.68H96C93.44,258,91,248.14,88.56,240h0l0-.08c-.33-1.12-2.66-10.09-3-11.15-2-7.88,1.57-34.47,13.78-54,0,0-32.4-31.5-61.5,30,0,0,20.41,5.52,13.2,35.25h0c-2.63,11.58-4.43,23.14-5.35,29.73H43.84a5.53,5.53,0,1,0,0,11.05h54.5a5.53,5.53,0,0,0,0-11.05Z"/><path class="cls-1" d="M37.84,204.7S-65.18,149,68.76,30.12s202.6,154.08,98.76,132.31c0,0-45.22-33.5-80.39,31.82Z"/></g></g></svg>