<!--
  - Baah Box
  - Copyright (c) 2024. Orange SA
  -
  -   This program is free software: you can redistribute it and/or modify
  -   it under the terms of the GNU General Public License as published by
  -   the Free Software Foundation, either version 3 of the License, or
  -   (at your option) any later version.
  -
  -   This program is distributed in the hope that it will be useful,
  -   but WITHOUT ANY WARRANTY; without even the implied warranty of
  -   MERCHANTABILITY or FITNESS FOR A PARTICULAR PURPOSE. See the
  -   GNU General Public License for more details.
  -
  -   You should have received a copy of the GNU General Public License
  -   along with this program. If not, see <http://www.gnu.org/licenses/>.
  -
  -->

<svg xmlns="http://www.w3.org/2000/svg" viewBox="0 0 580.79 378.86"><defs><style>.cls-1{fill:#60604a;}.cls-2{fill:#75745b;}.cls-3{fill:#fff;}</style></defs><title>crapaud</title><g id="Calque_2" data-name="Calque 2"><g id="Calque_2-2" data-name="Calque 2"><path class="cls-1" d="M411,118.84c13.63-27,48.79-25.6,48.79-25.6l0-.07a11.72,11.72,0,1,0-8.3-18.57,11.94,11.94,0,0,0-1,1.55c-2.08,3.2-7.2,9.83-11.46,5.37-4.09-4.27,3.34-8.63,7.42-10.59a16.49,16.49,0,0,0,2.28-1l.14,0,0,0a16,16,0,0,0,5.33-4.64A16.2,16.2,0,1,0,425,57.34h0a.83.83,0,0,0,0,.15,15.72,15.72,0,0,0,.37,2.16c.75,6-.68,13.89-6.64,12.2-5.61-1.59-1.92-10.52-.5-13.52.17-.31.33-.62.47-.93a.14.14,0,0,1,0-.06h0a11.72,11.72,0,1,0-17.68,4.84c8.79,14.9-3.69,26.68-4.16,26.91l-7.57,5.26,16.33,60.74S407.36,126.08,411,118.84Z"/><path class="cls-1" d="M171.66,118.84c-13.64-27-48.79-25.6-48.79-25.6l0-.07a11.71,11.71,0,1,1,8.31-18.57,13.15,13.15,0,0,1,.95,1.55c2.07,3.2,7.19,9.83,11.46,5.37,4.09-4.27-3.34-8.63-7.42-10.59a16,16,0,0,1-2.28-1l-.15,0,0,0a16.2,16.2,0,1,1,23.85-12.51h0a.83.83,0,0,0,0,.15,15.75,15.75,0,0,1-.38,2.16c-.75,6,.69,13.89,6.65,12.2,5.61-1.59,1.92-10.52.49-13.52-.17-.31-.32-.62-.46-.93l0-.06h0a11.71,11.71,0,1,1,17.68,4.84c-8.79,14.9,3.68,26.68,4.15,26.91l7.58,5.26L177,155.08S175.31,126.08,171.66,118.84Z"/><path class="cls-1" d="M572.67,169.94A19.83,19.83,0,0,0,545,174.22a20.71,20.71,0,0,0-1.61,2.64c-3.52,5.4-12.18,16.62-19.41,9.08-6.92-7.23,5.66-14.61,12.57-17.92a26.4,26.4,0,0,0,3.85-1.71l.25-.09,0,0A27.42,27.42,0,1,0,500.22,145l0,0,.06.26a26.69,26.69,0,0,0,.64,3.66c1.27,10.22-1.16,23.51-11.25,20.65-9.5-2.69-3.25-17.8-.83-22.89.28-.52.54-1,.78-1.58l.05-.1h0a19.83,19.83,0,1,0-29.93,8.19c14.88,25.23-6.24,45.16-7,45.55-42.93,20.84,6.11,98.48,23.81,50.38s82.59-43.34,82.59-43.34l-.06-.12a19.81,19.81,0,0,0,13.66-35.71Z"/><path class="cls-1" d="M471.62,294.74c-58.34,78.5-156.2,89.11-178.69,76.12s81.2-76.31,108.24-123.14,67.19-74.27,89.68-61.29S503.87,251.34,471.62,294.74Z"/><path class="cls-1" d="M8.12,169.94a19.83,19.83,0,0,1,27.71,4.28,20.71,20.71,0,0,1,1.61,2.64c3.52,5.4,12.18,16.62,19.41,9.08,6.92-7.23-5.66-14.61-12.57-17.92a26.89,26.89,0,0,1-3.85-1.71l-.25-.09,0,0A27.42,27.42,0,1,1,80.57,145l0,0-.06.26a26.69,26.69,0,0,1-.64,3.66c-1.26,10.22,1.16,23.51,11.25,20.65,9.5-2.69,3.25-17.8.84-22.89-.29-.52-.55-1-.79-1.58l0-.1h0a19.82,19.82,0,1,1,29.92,8.19c-14.88,25.23,6.24,45.16,7,45.55,42.93,20.84-6.11,98.48-23.81,50.38s-82.58-43.34-82.58-43.34l.05-.12A19.81,19.81,0,0,1,8.12,169.94Z"/><path class="cls-1" d="M109.17,294.74c58.34,78.5,156.21,89.11,178.7,76.12s-81.21-76.31-108.25-123.14-67.19-74.27-89.68-61.29S76.92,251.34,109.17,294.74Z"/><path class="cls-2" d="M441.89,189.43c0,104.62-86.23,189.43-149,189.43-52.61,0-149-84.81-149-189.43,0-19.11,29.18-35,33-52.42C194.33,59.19,241.32,0,292.93,0c53.39,0,97.59,60.23,115.39,137C412.49,155,441.89,169.58,441.89,189.43Z"/><path class="cls-3" d="M333.25,84.33A42.16,42.16,0,0,0,299.67,101a50.57,50.57,0,1,0-1.16,49.67,42.25,42.25,0,1,0,34.74-66.29Z"/><circle cx="287.94" cy="106.02" r="13.68"/><circle cx="310.96" cy="106.02" r="11.68"/></g></g></svg>