<!--
  - Baah Box
  - Copyright (c) 2024. Orange SA
  -
  -   This program is free software: you can redistribute it and/or modify
  -   it under the terms of the GNU General Public License as published by
  -   the Free Software Foundation, either version 3 of the License, or
  -   (at your option) any later version.
  -
  -   This program is distributed in the hope that it will be useful,
  -   but WITHOUT ANY WARRANTY; without even the implied warranty of
  -   MERCHANTABILITY or FITNESS FOR A PARTICULAR PURPOSE. See the
  -   GNU General Public License for more details.
  -
  -   You should have received a copy of the GNU General Public License
  -   along with this program. If not, see <http://www.gnu.org/licenses/>.
  -
  -->

<svg xmlns="http://www.w3.org/2000/svg" viewBox="0 0 202.55 151.1"><defs><style>.cls-1{fill:#fff;}.cls-2{opacity:0.2;}</style></defs><title>crapaud_compteur_mouche_vide</title><g id="Calque_2" data-name="Calque 2"><g id="Calque_2-2" data-name="Calque 2"><path class="cls-1" d="M165.77,8C214.9,8,199,64.55,134.17,82.25a21,21,0,0,1,6.16,7.31,27.3,27.3,0,0,1,7.73,17.4c.86,18.73-19.45,34.88-45.37,36.07-1,.05-2,.07-3,.07-24.56,0-44.63-13.83-45.46-31.82a26.23,26.23,0,0,1,3.67-14.41,25.08,25.08,0,0,1,6.26-13.72C2.43,67.71-13.24,13.72,41.57,13.73H43c49.65.84,58.78,40.8,60.18,61.41h.13c-.5-20.65,4.91-61.29,54.28-66.68A74.23,74.23,0,0,1,165.77,8m0-8a81.55,81.55,0,0,0-9,.52c-12.8,1.39-23.87,5.12-32.91,11.06A58.36,58.36,0,0,0,104.77,32.2a67.11,67.11,0,0,0-3.18,6.57,67.44,67.44,0,0,0-3.78-6.25A58.28,58.28,0,0,0,76.94,13.73C67.39,8.65,56,6,43.16,5.74h-1.6C29.82,5.73,20.25,8,13.11,12.42,5.78,17,1.2,23.92.21,32-1.18,43.17,4.47,55.83,15.69,66.68,25.06,75.73,37.46,83,52,87.9a32.24,32.24,0,0,0-1.77,6.38,33.62,33.62,0,0,0-4,17.36c.52,11.22,6.64,21.47,17.25,28.86,9.81,6.83,22.66,10.6,36.2,10.6,1.12,0,2.26,0,3.39-.08,14.2-.65,27.46-5.34,37.33-13.19,10.64-8.45,16.2-19.55,15.66-31.24a34.72,34.72,0,0,0-8-20.39c19-7,31.14-16.59,38.33-23.91,11.72-11.95,17.54-25.58,15.95-37.4A25.87,25.87,0,0,0,190.73,6.43C184.39,2.16,176,0,165.77,0Z"/><g class="cls-2"><path class="cls-1" d="M157.61,8.47c-49.37,5.39-54.78,46-54.28,66.68h-.13C101.8,54.54,92.67,14.58,43,13.74c-56.52-1-41.12,53.83,21.12,69.41a25.08,25.08,0,0,0-6.26,13.72,26.23,26.23,0,0,0-3.67,14.41C55.07,130,76.78,144.22,102.69,143s46.23-17.34,45.37-36.07a27.3,27.3,0,0,0-7.73-17.4,21,21,0,0,0-6.16-7.31C202.39,63.63,216.42,2,157.61,8.47Z"/></g></g></g></svg>