<svg xmlns="http://www.w3.org/2000/svg" viewBox="0 0 274 335.06">
    <defs><style>.cls-1{fill:#fff;}</style></defs>
    <title>ballon_menu</title><g id="Calque_2" data-name="Calque 2">
    <g id="Calque_2-2" data-name="Calque 2">
        <path class="cls-1" d="M274,137c0,75.66-61.34,167-137,167S0,212.66,0,137a137,137,0,0,1,274,0Z"/><path class="cls-1" d="M148.51,330.39h-1c-1.09-4.94-2.14-9.09-3.15-12.55h0v0c-.14-.47-.27-.92-.41-1.37-.85-3.33-2-11.56,7.08-13.48,0,0-15.79-26-28.08,0,0,0,8.62,2.33,5.57,14.89h0c-1.11,4.89-1.87,9.77-2.26,12.55h-.78a2.34,2.34,0,0,0,0,4.67h23a2.34,2.34,0,0,0,0-4.67Z"/></g></g></svg>