<!--
  - Baah Box
  - Copyright (c) 2024. Orange SA
  -
  -   This program is free software: you can redistribute it and/or modify
  -   it under the terms of the GNU General Public License as published by
  -   the Free Software Foundation, either version 3 of the License, or
  -   (at your option) any later version.
  -
  -   This program is distributed in the hope that it will be useful,
  -   but WITHOUT ANY WARRANTY; without even the implied warranty of
  -   MERCHANTABILITY or FITNESS FOR A PARTICULAR PURPOSE. See the
  -   GNU General Public License for more details.
  -
  -   You should have received a copy of the GNU General Public License
  -   along with this program. If not, see <http://www.gnu.org/licenses/>.
  -
  -->

<svg xmlns="http://www.w3.org/2000/svg" viewBox="0 0 250.66 163.51"><defs><style>.cls-1{fill:#60604a;}.cls-2{fill:#75745b;}.cls-3{fill:#fff;}</style></defs><title>crapaud_menu</title><g id="Calque_2" data-name="Calque 2"><g id="Calque_2-2" data-name="Calque 2"><path class="cls-1" d="M177.39,51.29c5.88-11.67,21.06-11,21.06-11l0,0a5.06,5.06,0,1,0-3.58-8,5.34,5.34,0,0,0-.41.68c-.9,1.38-3.11,4.24-4.95,2.31s1.44-3.72,3.2-4.57a6.18,6.18,0,0,0,1-.43l.06,0h0a7,7,0,1,0-10.29-5.4h0s0,.05,0,.07a6,6,0,0,0,.16.93c.32,2.61-.29,6-2.87,5.27-2.42-.69-.83-4.54-.21-5.84l.2-.4v0h0a5.06,5.06,0,1,0-7.63,2.09c3.79,6.43-1.59,11.52-1.8,11.61l-3.26,2.27,7,26.22S175.81,54.41,177.39,51.29Z"/><path class="cls-1" d="M74.09,51.29C68.2,39.62,53,40.24,53,40.24v0a5.06,5.06,0,1,1,3.59-8,6.82,6.82,0,0,1,.41.68c.89,1.38,3.1,4.24,4.94,2.31s-1.44-3.72-3.2-4.57a6.07,6.07,0,0,1-1-.43l-.06,0h0a7.08,7.08,0,0,1-2.3-2A7,7,0,1,1,68,24.75h0s0,.05,0,.07a7.58,7.58,0,0,1-.17.93c-.32,2.61.3,6,2.87,5.27,2.42-.69.83-4.54.21-5.84a3.62,3.62,0,0,1-.19-.4l0,0h0a5.05,5.05,0,1,1,7.63,2.09c-3.8,6.43,1.59,11.52,1.79,11.61l3.27,2.27L76.38,66.93S75.66,54.41,74.09,51.29Z"/><path class="cls-1" d="M247.16,73.34a8.53,8.53,0,0,0-12.66,3c-1.52,2.33-5.26,7.17-8.37,3.92s2.44-6.31,5.42-7.73a12.93,12.93,0,0,0,1.66-.74l.11,0h0A11.83,11.83,0,1,0,218.1,54.35a11.77,11.77,0,0,0-2.21,8.23h0l0,.11a12.16,12.16,0,0,0,.28,1.58c.54,4.41-.5,10.15-4.86,8.91-4.1-1.16-1.4-7.68-.36-9.88.12-.22.24-.45.34-.68l0,0h0a8.56,8.56,0,1,0-12.92,3.53c6.42,10.89-2.69,19.49-3,19.66-18.52,9,2.64,42.5,10.28,21.74s35.64-18.7,35.64-18.7l0,0a8.56,8.56,0,0,0,5.9-15.42Z"/><path class="cls-1" d="M203.54,127.21c-25.18,33.87-67.41,38.45-77.12,32.85s35.05-32.94,46.72-53.15,29-32,38.7-26.45S217.46,108.47,203.54,127.21Z"/><path class="cls-1" d="M3.5,73.34a8.57,8.57,0,0,1,12,1.85,9.61,9.61,0,0,1,.69,1.14c1.52,2.33,5.26,7.17,8.37,3.92s-2.44-6.31-5.42-7.73a12.93,12.93,0,0,1-1.66-.74l-.11,0h0a11.83,11.83,0,1,1,17.41-9.15h0l0,.11a10.67,10.67,0,0,1-.28,1.58c-.54,4.41.5,10.15,4.86,8.91,4.1-1.16,1.4-7.68.36-9.88-.12-.22-.24-.45-.34-.68l0,0h0a8.55,8.55,0,1,1,12.91,3.53C45.84,77,55,85.6,55.3,85.77c18.52,9-2.64,42.5-10.28,21.74S9.38,88.81,9.38,88.81l0,0A8.56,8.56,0,0,1,3.5,73.34Z"/><path class="cls-1" d="M47.12,127.21c25.18,33.87,67.41,38.45,77.12,32.85s-35-32.94-46.72-53.15-29-32-38.7-26.45S33.2,108.47,47.12,127.21Z"/><path class="cls-2" d="M190.71,81.76c0,45.15-37.21,81.75-64.29,81.75-22.7,0-64.29-36.6-64.29-81.75,0-8.25,12.59-15.12,14.26-22.63C83.87,25.55,104.15,0,126.42,0c23,0,42.12,26,49.8,59.13C178,66.89,190.71,73.19,190.71,81.76Z"/><path class="cls-3" d="M143.83,36.39a18.22,18.22,0,0,0-14.5,7.18,21.83,21.83,0,1,0-.5,21.43,18.23,18.23,0,1,0,15-28.61Z"/><circle cx="124.27" cy="45.76" r="5.91"/><circle cx="134.21" cy="45.76" r="5.04"/></g></g></svg>