<!--
  - Baah Box
  - Copyright (c) 2024. Orange SA
  -
  -   This program is free software: you can redistribute it and/or modify
  -   it under the terms of the GNU General Public License as published by
  -   the Free Software Foundation, either version 3 of the License, or
  -   (at your option) any later version.
  -
  -   This program is distributed in the hope that it will be useful,
  -   but WITHOUT ANY WARRANTY; without even the implied warranty of
  -   MERCHANTABILITY or FITNESS FOR A PARTICULAR PURPOSE. See the
  -   GNU General Public License for more details.
  -
  -   You should have received a copy of the GNU General Public License
  -   along with this program. If not, see <http://www.gnu.org/licenses/>.
  -
  -->

<svg xmlns="http://www.w3.org/2000/svg" viewBox="0 0 469.33 362.67"><g id="Calque_2" data-name="Calque 2"><g id="Calque_2-2" data-name="Calque 2"><path d="M438.83,133,358.61,44.86a40.83,40.83,0,0,0-57.74.13,39.91,39.91,0,0,0-10.33,17.65,40.87,40.87,0,0,0-64,21.31,40.87,40.87,0,0,0-53.65,3.71,40.33,40.33,0,0,0-10.25,17.22l-37.8-37.81a40.84,40.84,0,0,0-57.75,57.75L212.31,270.06l-86.14,13.52a47.8,47.8,0,0,0-40.84,47.09,32,32,0,0,0,32,32H318.49a116.57,116.57,0,0,0,83-34.37L435,294.74A117.2,117.2,0,0,0,438.83,133Z"/><path d="M183.38,56.6A95.91,95.91,0,1,0,56.6,183.4,10.67,10.67,0,0,0,65.39,164,74.57,74.57,0,1,1,164,65.39a10.66,10.66,0,1,0,19.43-8.79Z"/></g></g></svg>