<!--
  - Baah Box
  - Copyright (c) 2024. Orange SA
  -
  -   This program is free software: you can redistribute it and/or modify
  -   it under the terms of the GNU General Public License as published by
  -   the Free Software Foundation, either version 3 of the License, or
  -   (at your option) any later version.
  -
  -   This program is distributed in the hope that it will be useful,
  -   but WITHOUT ANY WARRANTY; without even the implied warranty of
  -   MERCHANTABILITY or FITNESS FOR A PARTICULAR PURPOSE. See the
  -   GNU General Public License for more details.
  -
  -   You should have received a copy of the GNU General Public License
  -   along with this program. If not, see <http://www.gnu.org/licenses/>.
  -
  -->

<svg xmlns="http://www.w3.org/2000/svg"
    viewBox="0 0 420.03 512"><g id="Calque_2" data-name="Calque 2"><g id="Calque_2-2" data-name="Calque 2"><path d="M410,404H385.47A90.13,90.13,0,0,0,296,324H252V195a102,102,0,1,0-84,0V324H124a90.13,90.13,0,0,0-89.45,80H10A10,10,0,0,0,0,414v88a10,10,0,0,0,10,10H410a10,10,0,0,0,10-10V414A10,10,0,0,0,410,404Z"/></g></g></svg>