<!--
  - Baah Box
  - Copyright (c) 2024. Orange SA
  -
  -   This program is free software: you can redistribute it and/or modify
  -   it under the terms of the GNU General Public License as published by
  -   the Free Software Foundation, either version 3 of the License, or
  -   (at your option) any later version.
  -
  -   This program is distributed in the hope that it will be useful,
  -   but WITHOUT ANY WARRANTY; without even the implied warranty of
  -   MERCHANTABILITY or FITNESS FOR A PARTICULAR PURPOSE. See the
  -   GNU General Public License for more details.
  -
  -   You should have received a copy of the GNU General Public License
  -   along with this program. If not, see <http://www.gnu.org/licenses/>.
  -
  -->

<svg xmlns="http://www.w3.org/2000/svg" viewBox="0 0 224.3 180"><defs><style>.cls-1{fill:#6d6a66;}.cls-2{fill:#fff;}</style></defs><title>mouton_menu</title><g id="Calque_2" data-name="Calque 2"><g id="Calque_2-2" data-name="Calque 2"><path class="cls-1" d="M69.44,152.53S67.1,169,64.62,173.86s3.25,9.44,5.49.7,6.54-21.86,6.54-21.86Z"/><path class="cls-1" d="M70.3,154.85s6.61,15.29,7,20.71,7.69,6.36,5-2.26-5.82-22.06-5.82-22.06Z"/><path class="cls-1" d="M107,149.66s-3.2,18.14-5.93,23.42,2.76,10.48,5.46.9,7.68-24,7.68-24Z"/><path class="cls-1" d="M109.09,150.79s4,18,3.51,23.9,6.57,8.62,5.38-1.26-2.1-25.09-2.1-25.09Z"/><ellipse class="cls-2" cx="102.64" cy="84.55" rx="82.99" ry="62.52"/><circle class="cls-2" cx="48.21" cy="37.91" r="15.88" transform="translate(0.24 76.12) rotate(-76.72)"/><ellipse class="cls-2" cx="92.71" cy="34.57" rx="39.55" ry="34.57"/><circle class="cls-2" cx="139.51" cy="40.06" r="31.95"/><circle class="cls-2" cx="37.03" cy="110.18" r="20.19" transform="translate(-78.71 120.91) rotate(-76.72)"/><ellipse class="cls-2" cx="75.48" cy="130.65" rx="32.09" ry="25.72"/><circle class="cls-2" cx="110.88" cy="140.33" r="14.38" transform="translate(-45.26 53.12) rotate(-22.5)"/><ellipse class="cls-2" cx="141.59" cy="128.98" rx="27.38" ry="25.73"/><ellipse class="cls-2" cx="34.01" cy="64.03" rx="18.79" ry="20.52"/><ellipse class="cls-2" cx="14.34" cy="81.06" rx="17.46" ry="12.83" transform="translate(-61.63 49.34) rotate(-57.31)"/><path class="cls-1" d="M169,53.79s54.21.24,55.32,51.13-66.94-1.34-64.17-25.56S169,53.79,169,53.79Z"/><path class="cls-1" d="M145.18,60.67s-31,7.59-19.91,20.39,29.32-20.39,29.32-20.39S145.74,67.31,145.18,60.67Z"/><path class="cls-2" d="M179.48,76.16c3.75-.2,7.32-.12,10.81-.43a26.78,26.78,0,0,0,5.1-.87A11.08,11.08,0,0,0,200,72.33a7.4,7.4,0,0,1-3.88,4.2A15.1,15.1,0,0,1,190.5,78a22.2,22.2,0,0,1-5.65-.25A19.48,19.48,0,0,1,179.48,76.16Z"/><path class="cls-2" d="M181.78,77a5.22,5.22,0,0,1-.45,2.81A4.57,4.57,0,0,1,179.48,82a6.92,6.92,0,0,1,.32-1.39,11.11,11.11,0,0,1,.48-1.25A8.21,8.21,0,0,1,181.78,77Z"/><path class="cls-2" d="M187.43,77a4.17,4.17,0,0,1,1,1.49,5.6,5.6,0,0,1,.4,1.73,4.84,4.84,0,0,1-.27,1.8,3,3,0,0,1-1.1,1.43,13.4,13.4,0,0,0,.22-1.63,13.19,13.19,0,0,0,0-1.54C187.6,79.23,187.45,78.19,187.43,77Z"/><path class="cls-2" d="M193.33,77a9.87,9.87,0,0,1,1.07,2.44c.12.41.24.8.34,1.22s.21.82.31,1.32a2.68,2.68,0,0,1-1.12-.93,4.38,4.38,0,0,1-.63-1.26,5,5,0,0,1-.21-1.38A3.33,3.33,0,0,1,193.33,77Z"/><path class="cls-2" d="M197.69,74.66c.8.71,1.39,1.38,2,2a10.1,10.1,0,0,0,1,.84,14.13,14.13,0,0,0,1.21.8,2.5,2.5,0,0,1-1.6,0,3.58,3.58,0,0,1-1.4-.81A4.25,4.25,0,0,1,198,76.2,3.24,3.24,0,0,1,197.69,74.66Z"/><path class="cls-2" d="M210.2,97c1.45,1.26,2.78,2.57,4.12,3.82a21.75,21.75,0,0,0,4.07,3.2,2.92,2.92,0,0,0,.9.31.84.84,0,0,0,.53-.11,3.72,3.72,0,0,0,1-1.81c.48-1.66.7-3.53,1.08-5.41a14.42,14.42,0,0,1,.68,5.76l-.12.78a6.34,6.34,0,0,1-.23.79,3.91,3.91,0,0,1-1,1.59,3.1,3.1,0,0,1-2.09.69,5.05,5.05,0,0,1-1.76-.53,10.29,10.29,0,0,1-2.48-1.85A18,18,0,0,1,213,102,20.47,20.47,0,0,1,210.2,97Z"/><path class="cls-2" d="M220.17,106a17.8,17.8,0,0,1,.82,4.4,25,25,0,0,1-.06,4.49,23.65,23.65,0,0,1-.83,4.41,19.35,19.35,0,0,1-1.66,4.15c.25-1.48.57-2.9.78-4.35s.43-2.88.57-4.33A84.65,84.65,0,0,0,220.17,106Z"/><ellipse class="cls-2" cx="170.91" cy="47.8" rx="10.87" ry="9.89"/><ellipse class="cls-2" cx="163.02" cy="58.42" rx="8.44" ry="7.38"/><circle class="cls-2" cx="163.5" cy="69.99" r="5.96"/><circle class="cls-2" cx="161.01" cy="81.87" r="8.45" transform="translate(-10.73 137.83) rotate(-45)"/><circle class="cls-2" cx="178.45" cy="53.89" r="8.98"/><circle class="cls-2" cx="176.48" cy="40.91" r="12.97" transform="translate(96.12 203.27) rotate(-76.72)"/></g></g></svg>