<!--
  - Baah Box
  - Copyright (c) 2024. Orange SA
  -
  -   This program is free software: you can redistribute it and/or modify
  -   it under the terms of the GNU General Public License as published by
  -   the Free Software Foundation, either version 3 of the License, or
  -   (at your option) any later version.
  -
  -   This program is distributed in the hope that it will be useful,
  -   but WITHOUT ANY WARRANTY; without even the implied warranty of
  -   MERCHANTABILITY or FITNESS FOR A PARTICULAR PURPOSE. See the
  -   GNU General Public License for more details.
  -
  -   You should have received a copy of the GNU General Public License
  -   along with this program. If not, see <http://www.gnu.org/licenses/>.
  -
  -->

<svg xmlns="http://www.w3.org/2000/svg" viewBox="0 0 512.01 469.33"><g id="Calque_2" data-name="Calque 2"><g id="Calque_2-2" data-name="Calque 2"><path d="M441.07,170.71l-3.73,0a138.2,138.2,0,0,0-122.58,74.58,115.65,115.65,0,0,0-113.54,9.56c-5.75,18.41-18.11,51.69-35.18,62.88a6.57,6.57,0,0,1-3.56,1.06,6.5,6.5,0,0,1-3.57-11.94c14.27-9.35,26.77-44.66,31.87-62.46-1-12.25-2.59-24.19-4.17-35.18-1.26-8.81-2.49-17.44-3.26-25.44-16.16-20-6.33-41.48,1.36-50.21a6.5,6.5,0,0,1,9.78,8.57,32.93,32.93,0,0,0-5.92,11.47,22.77,22.77,0,0,0,1.68,17.1h46.26a31.8,31.8,0,0,0,22.62-9.38l42.67-42.67A31.8,31.8,0,0,0,306.65,80c-6.86,5-15.58,11.08-24.92,16.78-20.73,12.65-36.9,18.93-48.86,18.93-5.63,0-10.32-1.39-14.13-4.16-6.33-4.61-9.94-10.89-10.45-18.17C207,74.49,226.78,54.72,229,52.53a6.5,6.5,0,0,1,9.05,9.33c-5,4.81-17.61,19.69-16.83,30.63.24,3.47,1.88,6.18,5.14,8.56,6.66,4.85,24.78-.87,48.45-15.3a377,377,0,0,0,32.26-22.34A31.88,31.88,0,0,0,293.6,30L267.71,12.76A75.76,75.76,0,0,0,225.57,0a116.68,116.68,0,0,0-83,34.41A455,455,0,0,0,46.91,173.49c-27.2,62-41,107.67-41,135.84,0,16.15-1.39,29.26-4.15,39-5.9,20.78,3.38,42.95,22.56,53.91A510.21,510.21,0,0,0,277,469.33h15.43A508.49,508.49,0,0,0,453.49,443.2l7.47-2.5A74.56,74.56,0,0,0,512,369.88V245.43C512,205.26,480.19,171.74,441.07,170.71Zm-73.49,169c-.07,1.18-2,29.24-28.84,51.66-21.43,17.91-52,26.92-91.13,26.92A309.93,309.93,0,0,1,210.8,416a6.5,6.5,0,1,1,1.55-12.91c53.26,6.42,92.88-.79,117.79-21.42,22.6-18.72,24.4-41.73,24.46-42.7a6.5,6.5,0,0,1,13,.79Z"/></g></g></svg>